<svg xmlns="http://www.w3.org/2000/svg" width="353" height="361.11" viewBox="0 0 353 361.11"><path d="M154.3,79.94c-.05.33-.33.43-.76.38-.19-.57.42-.34.76-.38m-1.13.19c-.44,0-.71,0-.76.38.43,0,.71-.05.76-.38m14.73,20.78c-1.84-.7-1.08,1,0,0m-6.14,137.6.09.28c.88-.8,1.69-2,1-3.4-2.84-1.13-3.22,2.39-1.32,3.21Zm-7.27,6.89c0,.36-.22.42-.19.76.52.3.52-.82.19-.76M104,110.82l-.28.1c0,.19-.16.22-.19.38h-.19l-.1.28-.28-.1c-.36.46-.42,1.22-1.13,1.33l.09.28-.28.09c0,.27-.41.22-.57.38l.1.28-.28-.09c0,.38-.52.24-.38.76-.45-.05-.12-.84.18-.76l-.09-.28.29.09c-.06-.5.26-.62.75-.56l-.09-.29.28-.09a1.72,1.72,0,0,1,1.13-1.14l.1-.28.28.1a.88.88,0,0,1,.19-.57h.19l-.1-.28.29-.1c.79-1.41,2.46-1.94,2.83-3.78,1.27.82,1-1.32,2.46-.94-.61,1.72-3,1.67-3.4,3.59-1.08-.68-.81,1.4-1.89,1.32Zm5.76-5.95c.25-.32.39-.74,1-.75-.25.32-.39.74-1,.75m2.65-1.88c-.57-.13.18-.41,0-.76.47,0,0,.64,0,.76M263.19,196.2l.09.28c.89-.38-.1,1.1-.18,1.51s.7.18.75.57a9.51,9.51,0,0,0-.38,2.27c-.28,0-.17-.46-.19-.76-.7,0-.64.74-.75,1.32l.15.31.23.26c.5,1.26-1.56,1.59-1.51,3-.27,0-.22-.41-.38-.57-.7.39-.3,1.18-.38,1.71-.44,2.92-1.95,5.4-3,7.74.05.27.41.21.56.38-.16.78-.93.95-1.13,1.7-.45-.43-1.14,0-1.51.19a21.86,21.86,0,0,0,.19,5.47c-.5,0-.15.74-.76.57.74,1.55-1,2-.56,3.78-.64.28-.67,1.28-1.14,1.89-.09.12-.46,0-.56.19-.4.57-.32,1.57-.19,1.32-.26.5-.83.53-1.13.94-.15.2.09.71,0,1-.32.76-1.14.9-1.7,1.32-.17.67,0,.46-.19,1.13a21.46,21.46,0,0,0-2.84,4.35,3.82,3.82,0,0,0-2.07,2.07c-.54.29-1.13.51-1.33,1.14-1.48.53-2.25,1.64-3.4,2.26a59.76,59.76,0,0,1-6,3l.28.09-.09.28c.23,0,.11.21,0,.38l.28.1-.09.28c.7.2.53-.47,1.13-.38-.35.59-.48,1.41-1.32,1.51.36,1.23-2.64,2.73-3.78,2.84-.26.05-.22.41-.38.56-2.15.46-2.75,2-5.29,1.7-.44.44-1.14.62-1.51,1.14-1.54.14-2.59-.25-3.21.94-.27-.1-1,.22-.94-.19a15.15,15.15,0,0,1-6.05,1.7c-.41,0-.6.16-.56.57a10.45,10.45,0,0,0-4.35.75,4.38,4.38,0,0,0-2.45.19,4.1,4.1,0,0,1-1.33.19c-.51.19-.68.72-.94.76s-.94-.37-1.13-.38c-.38,0-.57.35-1,.38s-.47-.37-.75-.38-1.25.48-2.08.57c-1.32.14-2.24-.21-2.83.56v-.56c-1.36.13-3,.51-3.78.19-.25,0-.17.33-.38.37-3.59-1-7.21-1.06-11-2.08l.1.29-.28.09c0,.24.24.27.18.57-.21,0-.29-.21-.37-.38l-.29-.09.1-.29a34.19,34.19,0,0,1-3.59-.94c0-.58.84-.41.94-.94-.71-.56-2.12-.4-3-.76a5,5,0,0,0-.56-1.89c-.49-.15-.87.74-1.14.19s.59-.29.95-.38c.49-1.38-1.4-1.15-.76-2.08l-.28-.09.09-.28c-.76-.44-.5-1.9-1.89-1.7,0-.8-.34-1.06,0-1.7a16.64,16.64,0,0,0-3-2.65c-1.2.08-1.31.28-2.64.38-.59,0-.74-.53-1.14-.75-1.1.59-2.3.81-3-.38a1.33,1.33,0,0,0-.57.38c-.51.13.14-.9-.37-.76-1.33.06-1.13,1.64-1.7,2.45-.47-.34-1.23-.41-1.51-.94-.51.12-.72.54-1.14.76a2.91,2.91,0,0,1-2.08-1.33c-.9-.14-1.21.3-2.07.19a1.82,1.82,0,0,0-1.14-1.51c-1,0-1.22.79-1.89,1.14-.84-.07-.54-.57-.75-.95a3.93,3.93,0,0,0-2.08.19c.16-.53-.26-.49-.19-1-.94.36-1.38-.19-2.45-.18-.5-1.14-2.27-1-3-1.89-1.32.76-1.63-.48-3,0-.25-.69-.61-.71-.56-1.33-.92-.16-1.26.26-1.89.38a10.29,10.29,0,0,0-1.14-1.32c-.26.05-.21.41-.37.57-.45-1-1.2-2.2-2.27-1.51-1.05-.59-1.51-1.77-2.46-2.46a15.24,15.24,0,0,0-1.88.38c0-2.11-3-1.26-3.22-3.21a6.2,6.2,0,0,1-2.07-.38v-1.32c-.25-.26-.82-.19-1.33-.19-2.76-4.91-5.8-9.56-7.93-15.11-.44-.13-.27-.86-.75-.95.13-1.37-1-2.11-.76-3,0-.26-.41-.21-.57-.38,0-2.83-2.13-4.4-1.51-7.18-1.45-2.13-.55-5.42-1.7-7.36.57-1.32-.57-3.22-.19-4.35a1.31,1.31,0,0,1-.56-2.26c.13-1.13-.61-1.1-.19-2.08,0-.27-.42-.21-.57-.38a2.14,2.14,0,0,0-.94-2.26c-.35-1.12-.06-2.34-.19-3.4-.08-.62-.48-1.33-.57-1.89s.06-1.24,0-1.89c-.18-2.12-.64-4.35-.75-6.8-.29-6.07,1.22-12.82,1.88-17.76.09-.6.63-1,.76-1.32.2-.46,0-1.22.19-1.7.1-.31.45-.57.57-.94.5-1.7.84-2.57,1.13-4,.5-.13.4-.86.94-.94,0-.23,0-.54-.18-.57.47-.72,1.15-1.24,1.13-2.46a4.05,4.05,0,0,0,1.32-2.45c2.64-3.16,4.18-7.41,7.37-10,.54-1.91,2.48-2.44,3.21-4.16,1,.35.81-.61.94-.75s.74-.13.95-.38,0-.6.19-.76c.4-.38,1.08-.57,1.51-.94.91-.8,1.47-2,2.26-2.65.44-.37,1.17-.49,1.7-.94s.89-.82,1.33-1.13.69-1,1.51-1c1.6-2.68,5.25-3.31,6.8-6,1.13.57,1.4-.6,2.26-1.14.14-.08.42.08.57,0,1.91-1,4.23-2.7,6.23-2.83.39,0,.38-.5.57-.75a47.75,47.75,0,0,0,7.74-3,1.13,1.13,0,0,1,.76.19,2.6,2.6,0,0,1,2.08-.56l.56-.57c1,0,2.09.07,2.46-.57l7.37-1.32c.29,0,.47-.32.75-.38,1.93-.42,3.64-.07,5.67-.19.66,0,1.21-.49,1.89-.56.95-.1,2,.27,3,.19.48,0,.9-.36,1.32-.38,1.28-.07,2.66.14,4,.19,1.5.06,3.14.46,4.53-.19,1,1.07,2.51.26,3.78.38.48,0,.64.42,1.13.56,3.26.94,6.39-.13,8.12,1.32,1.75-.61,2.53.51,4,.76.53.09,1.07-.09,1.51,0,1,.21,1.79.89,2.83.76,0,.24.25.26.19.56,1.48-.15,1.86.79,3.4.57a1.64,1.64,0,0,0,2.08.57s0,.36,0,.37a12.14,12.14,0,0,1,4.53,2.08c.9,0,.84-.48,1.7-.19a3.3,3.3,0,0,0,3.21,1.33,14.71,14.71,0,0,0,5.67,3.39v.76c.93,0,1.34.56,2.27.57.17.45.76.5.56,1.32,1.51.83,3.58,1.08,4,3,1.51-.13,1.79,1,2.08,2.08.87-.63,1.08.56,2.08.38.26.85-.74.94-.19,1.51,1.41.5,3.15.58,3,3,.4.46.84-.17,1.13.19,1.58,2,2.59,4.59,4.73,6-.27.72.49,1.38,0,1.7,1.29.84,1.79,2.49,3,3.4,0,.36-.22.42-.19.76,1,.43,1.38,1.9,1.51,2.64.17.34.66.35.94.57.31.95-.05,1.52.95,1.89-.37,1.08.42,1.35.56,1.7s-.08.66,0,.94.4.58.57.95c.34.73.28,1.38.57,2.07s.91,1.11,1.13,1.7c.12.32-.24.45-.19.76.23,1.32,1.46,2.73,1.14,4.34.18.2.37.39.56.57a37.56,37.56,0,0,0,1.14,6.23,41.14,41.14,0,0,1,1.51,7.37,106.35,106.35,0,0,1,.38,15.3c-.12,2.08-1.05,5.27-.76,6a.31.31,0,0,0,.57,0l-.26-.18.26-.19c-.08-.37.86-.28.56.19l-.09.28-.28-.1c0,.47-.3.59-.38.95-.67,0,.4-.63-.19-.57-.47.53-.08,1.32-.19,1.89l.28-.09-.09.28c.56.7-.55,1.33-.19,2.46a1.84,1.84,0,0,0-1.32,1.89ZM122.91,94.77s-.34-.1-3.37,2c-1.81,1.77-3.49,3.69-6.23,4.53.14-.78.46-.22,1-.56-.53-.56,1.73-1.9,2.45-2.27.36-.18.58-.66.76-.75s.69,0,.94-.19.06-.48.19-.57c.6-.42,1.62-.53,1.89-1.32,1.12.78.8-1.28,2.08-1l.22-.28s.34.09.91-.85c.5.28-.08,1-.57.94Zm8.53-5.57c.65.25-1.13.75-1.13.75l-.22.29-.35-.1c0,.21-.27.29,0,.38,0,.15-.15.22-.37.19l.09.28-.28-.09c-1.09.73-2.31,1.72-3.59,1.7l.09.28-.28.09c-.92.3-.92-.15,0-.18l-.09-.29.28-.09c.34-.29,1.17-.67,1.51-.38,0-.5.73-1.54,1.7-1.13,0-.22-.28-.3,0-.38l-.09-.28.28.09c.36,0,.41-.21.75-.19l.22-.28a.27.27,0,0,0,.35-.29c.59.28.73,0,1.13-.37m5.2-2.74-.29.09c-.18,0-.22.15-.37.19l.09.28-.28-.09c.05.34-.73,0-.57-.38h.38l-.1-.28.29.09h.56l-.09-.28.28-.1c.47.18,1.14-.67,1.14.19-.34-.35-.48.16-1.14,0Zm5.57-2.74c-.39-.16-.19,0-.19,0l-.22.28-.34-.09.22-.29s.34.1,1.47-.47c0,.49-.7.3-.94.57M144.1,83c-.34-.22,1-.42,1.32-.56-.1.52-.91.35-1.32.56m12.84-3.59c0,.22,0,.34-.19.38.09.28.25-.07.57,0-1.73,1-4.47,1.07-6.8,1.51,0-.27,0-.53-.19-.56a16.87,16.87,0,0,1,4.73-1.33c.61,0,.4.86,1.32.57.52-.17-.44-.77.56-.57m4.91-.28-.18-.09c-.23.34-1,.14-1.33.37l-.19-.09-.19-.09c-.18.38-.72.4-1.32.37.21-.73-.66-.67-.19-1.13,2.26-.16,4.18-.75,6.05-.57,1.48-1.17,3.24-.78,5.67-1.13-.35,1.44-1.73.85-3,.94s-2.37.65-3.21.38c-.76.25-.8,1.22-1.89,1.14Zm12.75-2.64.1.09c.2-.43,1.19-.07,1.7-.19l.09.1.1.09.09.28-.28-.09c-.79.22-.93,0-1.7-.19l.09.28-.28.1c-.2.31-1.31.69-1.51.38l-.28-.1.09-.28c-.12,0-.22,0-.19-.19-.35.71-.68.3-1.7.76.11-.61-.35-.59,0-.95.67.3,1.4-.16,2.46,0l.19-.09.18.09c0-.28.46-.17.76-.19ZM284.16,222.58l.28-.22c-.06-.39-.38-.5-.57-.76-.15-1.41.72-2.77,1.14-3.77s.62-2.09.94-2.84c.23-.52.38-1.05.57-1.51.05-.12.54-.32.57-.38.11-.27-.1-.66,0-.94.31-.9,1.38-2.15,1.51-3,.17-1.28.57-2.79.75-4,.11-.7-.17-1.32,0-1.89.09-.29.48-.6.57-.94a74.17,74.17,0,0,0,1.7-8.69c.16-1.29.46-1.86.56-2.64.07-.51-.21-1-.19-1.52s.47-1.24.57-1.89c.21-1.29.19-2.53.38-3.4.15-.69.06-1.54.19-2.26s.49-1.29.57-1.89-.59-1.29.18-1.7c-.72-.9-.05-2,0-3a41.58,41.58,0,0,0-.56-10.2c-.08-.32.06-1,0-1.32a21,21,0,0,1-.57-2.46,16.07,16.07,0,0,0,0-1.7c-.17-.93-.78-1.9-.94-2.83-.06-.31.22-.67.18-.95,0-.08-.32-.27-.37-.57-.4-2.42-1.15-4.74-1.7-7.17-.51-2.23-1.28-4.22-1.89-6.24-.08-.25.22-.44.19-.56-.08-.33-.9-1.23-.57-1.89a2.06,2.06,0,0,1-.56-1.7,7.66,7.66,0,0,1-.57-.57c-.15-1.42-1.24-3.18-1.14-4.72a88.77,88.77,0,0,0-8.87-15.68,15.17,15.17,0,0,0-3-4.91c-1.05-2.65-3.6-3.82-4.72-6.42-1.6-.6-1.8-2.61-3.4-3.21a45.72,45.72,0,0,0-8.5-8.31c-1.56-1.08-2.88-2.66-4.34-3.59-1.63-1-2.85-2.08-4.53-3a8.25,8.25,0,0,0-2.65-1.14c-3-3-7.81-4.27-11.33-6.8h-1.32c-.7-.63-1.25-1.39-2.65-1.32a34.7,34.7,0,0,0-10.58-3.4c-3.53-1.84-7.88-2-11.9-2.83-.8-.16-2.94-.75-3.59-.76s-1.38.41-2.07.38c-.27,0-.65-.34-1-.38-1-.12-2,.1-3,0-2.28-.22-4.53-1-6.8-.56-.92-.78-1.86-.44-2.83-.38-2.43.15-5.17-.49-7.37-.38-1.35.07-4.19.43-5.48.57-1,.11-2.14-.12-3,0-.64.08-1.26.48-1.89.56-2.8.38-5.56.6-7.74.95-.86.14-1.79,0-2.65.19-.63.13-1.2.59-1.88.75s-1.61,0-2.46.19c-2.33.4-4.36,1.42-6.61,2.08-3.87,1.14-7.72,1.92-11.33,3.59a178.69,178.69,0,0,0-17.57,9.25,88.88,88.88,0,0,0-10.39,7.56,15.22,15.22,0,0,1-3.59,2.45c-6.7,6.12-13.48,12.76-18.7,20a113.29,113.29,0,0,0-7,11c-1.07,1.94-2.47,3.82-3,6-1.16.72-1,2.73-2.08,3.58-.88,2.94-2.23,5.86-3,8.69-.69,2.49-1.64,5.55-2.64,8.12a1,1,0,0,0,.19.76,92.53,92.53,0,0,0-3,27.58c.08,2.39.52,4.73.57,7,.06,2.79-.07,5.46.76,8.12a3.06,3.06,0,0,0-.38,1.32,3.35,3.35,0,0,0,.94,1.13c-.23,0-.44.06-.37.38.27.75.74,1.14.37,2.08.33.42.45,1.06.76,1.51.06,2.29,1.06,4,1.32,6.05a1.41,1.41,0,0,1,.57.37c.53,1.49,1.57,2.46,1.7,4.35a16.09,16.09,0,0,1,2.26,2.26,119,119,0,0,0,4.35,11.15l.22-.28.35.09c.61.08,1.1,1.91,1.51,2.83l.28-.09-.1.28c.11.32.64,1.54,0,.95l-.09.28-.09.28c.71,1.81,1.49,3.48,2.26,5.1,1,2,2.28,3.85,2.84,6.05.87.2.54,1.59,1.32,1.89-.27,0-.22.41-.38.56a3.29,3.29,0,0,1,.76.57c.34,1.67,1.31,2.71,1.7,4.34a3.34,3.34,0,0,1,1.7,2.84c.51.36.83.93,1.32,1.32.11,1.08,0,2.34,1.32,2.26-.06.26-.27.37-.19.76,1.79.1,1.34,2.44,2.83,2.83v1.14a1.64,1.64,0,0,0,1.14.19,3.43,3.43,0,0,0,1.7,1.89c0,.35.21.41.19.75,1.32.38,1.81,1.59,3,2.08-.22,0-.21.3-.19.57,1.85,0,2.58,3.24,3.4,2.45.26.24.19.82.19,1.32,2.43.08,3.55,3.24,6,2.84a1.22,1.22,0,0,1-.19.94c1.65-.43,1.37,1.18,3.22,1.32.45-.25.11-.37.37-.56-.08.52.71.17.76.56-.75-.18-.59.55-.76.95a8.1,8.1,0,0,0,2.84.75,7,7,0,0,0,.75,1.51c.24.25.43-.07.57,0s.35.74.38.76c.34.21,1,.15,1.51.38.1.05.19.48.38.56,1.33.63,2.73.88,2.45.38a3.29,3.29,0,0,0,2.27,2.08c.38.09,1-.22,1.32-.19,1.25.11,1.66,1.36,2.83,1.51.05,1.27,1.1,1.55,1.51,2.46.79-.43,1.16-.14,1.89-.19.29,0,.58-.39.76-.38a2.54,2.54,0,0,0,.75.38c1.13.25,1.67.26,2.08-.19-.24,1,.5.79.19,1.89a3.32,3.32,0,0,1,1.13,1.51,3.9,3.9,0,0,0,1.7,0c.26,1.32,2.71.44,2.46,2.27a2.22,2.22,0,0,0,1.7-.38c-.39,1,.27-.09.19.94,1.3-.37,2.28.06,3.21-.56.38.71,1.59.66,1.51.19.4.48.89,1.65,1.89.94a1.21,1.21,0,0,0,.19.94c1.1.28,1.31-.32,1.7-.75,0,1,.49.25,1.13.56a5,5,0,0,1,1.51-2.26c.25.47-.88.46-.19.75,1.52.19,4.44.6,5.86,1.51.72-.09,1.42-.34,1.32-.75.46.89,1.08.62,2.27.57,0-1.63,1.2-.69,2.26-.57a5.53,5.53,0,0,0,3.59-.76c-.43-.38,0-1.49.95-1.13,0,.19-.82.38-.19.57.95,0,2.6-1.33,2.45-2.46,1.2,0,1.32.56,2.46.19v-1.32c.36.35.34-.11.94,0,.08-.72.82-.81,1.89-.95.36,0-.1-.31.19-.37,1.35.67,1.84-.53,3.21-.19.44-.13.28-.86.76-1,.51.31.73,0,1.32.38,2.43-.88,5.1-.71,7.56-1.13.23,0,.47-.37.75-.38,1.06,0,2.19.42,3.21.38.32,0,.43-.33.76-.38s.62.22.94.19c1.73-.16,3.74-.95,5.1-.95a.52.52,0,0,1,.38-.56c.3,0,.15.48.57.37,0-.89.86-.36,1.51-.56.3-.1.16-.32.56-.38,1.67-.25,3.74.42,5.29-.76.36.09.48.41,1,.38,1.74-1,3.37-2,6-2.08.8-.77,2.16-1,3.4-1.32.37-.05.38.26.57.38,1.2-.69,2.16-1.62,4-1.7a6.22,6.22,0,0,1,4.16-1.7c.54-.34.77-1,1.89-.75,1.08-1.64,4.27-1.15,5.29-2.84,3.7-1.08,6.1-3.47,9.82-4.53.2-.93,1.36-.91,1.7-1.7,2.3-.1,3.28-3.14,5.86-3.59-.22,0-.21-.3-.19-.57,1-.57,2.13-.87,2.26-2.07,2.85-1.51,4.23-4.12,6.61-5.67.74-2.41,2.84-3.46,3.59-5.86.52.46.55-.71,1.14-.75,0-.6.5-.63.37-1.32,1.41-.55,1.64-2.27,2.65-3.21.37.31.24,0,.75,0-.17-1.35,1.3-2.25,2.08-3.22-.28-.57.06-.73-.19-1.13a9.81,9.81,0,0,0,2.65-4.15h.56c-.13-.83.33-1.07.19-1.89.58.59.19-.62.76-.57-.18-.74.65-.48.37-1.32,1.11-.35.83-2.08,1.71-2.65-.11-2.36,1.3-3.37,1.13-5.85a12.12,12.12,0,0,0,1.13-1.51h.19Zm-19.93-30.82c-.41,0-.41.48-.38.94.5.06.62-.26.57-.75h-.19Zm-7.37,23c0,.26-.63.71-.19.76,0-.25.77-.57.19-.76m-95.1,23.71c-.14.29-.45.51-.47.85M80.1,229.07a15.16,15.16,0,0,0,1.57,3.21m202.49-9.7a2.32,2.32,0,0,0,.38.06m-111-145.91a3.31,3.31,0,0,0,1.22.09m-.19-.37a1.3,1.3,0,0,0,.19.37m1.7-.37a1.3,1.3,0,0,0,.19.37m-3.11-.09v-.28m-13.42,2.64h-.47m2.17,0c-.17-.59-1.27-.17-1.7,0m13.42-2.36c-.3.15-.64.19-.85.47m-12.57,1.89v.19M141.8,84l-.12-.38m-5,2.84-.38-.38m-.76.19a1.58,1.58,0,0,0,.57.75m-6,3.22c0-.13-.08-.26-.13-.38m-1.25.38a4.8,4.8,0,0,0,.75.75m-3.78,1.89-.37-.38m-2.4,2.27-.12-.38m141.72,97.09a3.19,3.19,0,0,0-.28.47M173,252a.68.68,0,0,0-.66-.09m8.12,7c-.28-.09-.43,0-.76.19m52.89-11.24c.55-.23,1.15-.22,1.7-.47m-2.83-.19c.87-.18,1.76-.37,2.64-.57m28.33-44.2c.1-.25.16-.5.25-.73m0,0a3.48,3.48,0,0,0-.43-.21m.94-5.29a1.62,1.62,0,0,0-.09.38M103,111.2l.18.38m.76-.76-.38-.37m-2.45,3.39c-.19-.14-.38-.25-.57-.37m1-.76.37.38M265.27,189.4a1.44,1.44,0,0,0-.73-.28M81.67,232.28c.19-.13.38-.24.57-.38m-.57.38a9.38,9.38,0,0,0,.38,1.13" fill="#fff"/><path d="M111.88,348.66v-.18c.25-.05.21-.39.36-.55s.45-.07.54-.18.12-.43.18-.54.13-.09.18-.18.09-.25.18-.36a9.81,9.81,0,0,1,.73-.72,10,10,0,0,0,.72-.91c.17,0,.17-.15.18-.36s.15-.1.18-.18c.11-.26,0-.5.18-.72,0,0,.31,0,.36,0,.24-.11.47-1,.54-1.09s.19,0,.37-.18-.06-.3,0-.36c.33-.37.88-.8.9-1.27,0-.26.43-.2.54-.36s0-.53.18-.72.41-.2.55-.36.22-.38.36-.54.34-.33.54-.55a1.53,1.53,0,0,1,.18-.18s.14,0,.18,0-.05-.3,0-.36c.25-.27.89-.51.9-.72s.54-.56.73-.72.17-.16.18-.37.15-.1.18-.18c.1-.24,0-.52.18-.72s.3,0,.36,0,.14-.32.18-.36.27-.11.36-.18,0-.3,0-.36.35.06.36-.18.44-.59.55-.73.3,0,.36,0,0-.44,0-.54.16,0,.18,0,.06-.57.18-.72c.49.19.42-.37.54-.55s.58-.26.36-.72c.32-.11.54-.53.73-.54s.14-.46.54-.36c0-.17,0-.38,0-.54s.32-.28.36-.37.07-.33.18-.54.3-.25.36-.36-.06-.3,0-.36.33.06.36,0,0-.27,0-.36a2.17,2.17,0,0,1,.37-.73c.22-.29.47-.25.54-.54,0-.08-.05-.29,0-.36s.49-.09.54-.18,0-.27,0-.36c.14-.56.62-1.05.72-1.45s.43-.94.91-.9c-.22-2.39,1.25-3.05,2.53-2,.15.12.22.4.36.54s.39.21.54.36.38.6.54.73.15,0,.19,0-.06.3,0,.36.28,0,.36,0a2.16,2.16,0,0,1,.54.72c0,.2.13.09.18.18.22.4.07.86.18,1.27,0,.06.33.27.36.36s-.05.5,0,.72a2.74,2.74,0,0,1,.91,1.09c.05.07-.07.3,0,.36s.31-.06.36,0,.1.25.18.36.25.22.36.36.29.74.72.72c0,.35.21.4.18.73s.11.12.18.18.29.36.37.36.43.26.54.36.06.39.18.54.3-.05.36,0c.27.26.53.9.72.91s.1.06.18.18.35.71.55.72c.36,0,.6,1.25.9,1.27s.4.4.54.54.52.55.73.72.43.12.54.18.21.25.36.36.76.32.72.73c.4.26,1,.35,1.27.72.26.74,1.23.92,1.26,1.63,0,.4.8.78.91.9s-.06.3,0,.36.29-.06.36,0-.06.31,0,.36.29,0,.36,0a1.51,1.51,0,0,0,.36.18c.36,0,.38.43.54.55s.54,0,.73.18a5.92,5.92,0,0,1,.72.9,3.85,3.85,0,0,1,.72.9c1.32.1,1.21,2.82-.36,2.54,0,.23.25.08.36.18s.19.4.36.54-.42.67-.36.72a6.32,6.32,0,0,1-2.35.18c-.28,0-.54-.3-.9-.36s-.94.06-1.45,0c-.11-.5-.73-.54-1.08-.72s-.78-.59-1.27-.54c-.18-.42-.62-.59-.54-1.27-.28-.32-.83-.37-.9-.9-.53,0-.45-.58-.54-.73-.32-.49-.89-.79-.91-1.44a6,6,0,0,1-1.26-.91c-.08-.11-.11,0-.18-.18s0-.36-.19-.36c-.58.22-.13-.58-.72-.36-.07-.95-.91-1.14-.9-2.17-.53,0-.77-.56-.91-.72s-.35-.3-.36-.36-.26-.44-.36-.55-.39-.05-.54-.18.05-.3,0-.36-.15,0-.18,0,0-.29,0-.36-.16,0-.18,0,0-.3,0-.36a5.65,5.65,0,0,0-.55-.54,7.31,7.31,0,0,0-1.26-1.09c.1-.7-.46-.74-.54-1.26-1.08-.49-1.06-1.51-2.17-1.45-.42,0-.55.2-.91.54a6.28,6.28,0,0,0-.72.91,3.42,3.42,0,0,0-.18.54c0,.07-.12,0-.18.18s0,.57-.18.72-.31-.06-.36,0,.05.29,0,.36-.42,0-.36.18a5.22,5.22,0,0,0-.55,1.63,2.82,2.82,0,0,0-.54.36c-.27.26-.38.59-.54.73s0,.14-.18.36a1.37,1.37,0,0,1-.36.36c-.06.05.05.3,0,.36s-.31-.06-.37,0,.06.3,0,.36a4.08,4.08,0,0,1-.36.36c-.14.14-.38.06-.54.18s.06.31,0,.37-.3-.07-.36,0-.09.42-.18.54-.62.25-.72.36,0,.29,0,.36a3.2,3.2,0,0,1-.37.54c-.23.28-.45.44-.72.73-.11.12-.13,0-.18.18s0,.22-.36.36c0,0-.14.32-.18.36-.23.25-.5.48-.73.72s-.42.78-.9.73c0,1-.66,1.35-1.08,1.8l-.55.55c-.13.13-.39.05-.54.18s0,.3,0,.36c-.19.23-.42.4-.54.54s-.46.27-.72.36a1,1,0,0,0-.55.73c0,.28-.46.14-.36.54-.26.21-.35.42-.54.54s-.85.2-1.08.54c0,.58-.65.44-.91.73-.12-.42-1-.14-.72-.91h-.9c0,.33-.18.42-.55.36-.09-.21,0-.57-.18-.72s-.28.05-.36,0-.4-.1-.54-.18c-.39-.23-.29-.34-.54-.54m24.22-1.45a3,3,0,0,1,2.35-.54c0,.52-.61.56-.91.72-.09.05,0,.17-.18.18s-.58.27-.9.36c-.16.11-.53.23-.54.55s-.53.3-.73.54c-.21,0-.15.33-.18.54-.68.1-1.82.77-2.71,0,0-.64.67-.66.54-1.45.19,0,1.07,0,1.09-.36s.49-.11.72-.18.31-.35.36-.36c.33-.08.71.06,1.09,0m3.25-9.76c-.33-.18-.69-.07-1.08-.18s-.55-.33-.91-.36c-1.19-.11-2.29.43-3.61.36a4.33,4.33,0,0,1-1.09.9c-.61.05-.86.46-1.62.36-.2.17-.34.4-.54.55s-.5.22-.73.36a3.24,3.24,0,0,0-2.17.36c0,.14,0,.36-.18.36a2.82,2.82,0,0,0,.72,1.63,1.42,1.42,0,0,0,.55.36c0,.45.28.56.36.9a2.54,2.54,0,0,1,1.81.91,10.25,10.25,0,0,1-2.35.9,2.63,2.63,0,0,0-.37.9c0,.22-.1.08-.18.19a1.9,1.9,0,0,0-.54,1.62c-.51,0-.49.59-.9.73-.21.57-.27,1.29-.91,1.44a4,4,0,0,1-.36,2.17c0,.26.3.31.36.54.18.62-.08.87.18,1.09.09.07-.07.45,0,.54s.33-.06.37,0-.07.4,0,.54c.15.34.35.9.36.91s.3-.06.36,0-.06.29,0,.36a1.93,1.93,0,0,0,1.63.54c.57-.07.7-.54,1.08-.9.16-.15.4-.21.54-.37s.16-.7.55-.54c1.1-.08,1.45.6,2.71.36a4.81,4.81,0,0,0,.9.55A2.73,2.73,0,0,1,135,355c.17-.05.38.06.55,0,.37-.11,1-.71,1.26-.18.06.36-.25.36-.36.55a1,1,0,0,0-.18.72c.35.07.14.7.72.54,0,.4.77.08,1.09.18,0,.32.31.41.72.36,0,.29,0,.63.36.55s1,.1,1.45,0c0,0,0-.17,0-.19s.29,0,.36,0,.07,0,.18-.18a3.49,3.49,0,0,1,1.08-.54c.09-.09.18-.73.37-1.08.06-.11.27-.22.36-.36a4.92,4.92,0,0,0,.18-2c-.18,0-.12-.09-.18-.18-.21-.31-.38-.34-.54-.55s-.06-.38-.19-.54-.52,0-.36-.36c-.27-.39-1-.29-1.08-.9a3.52,3.52,0,0,1,1.44-.73s.13-.31.19-.36.43-.2.54-.36.07-.7.18-1.08.33-.65.36-.91a5.62,5.62,0,0,0,0-1.44s-.17,0-.18,0,0-.3,0-.37-.16,0-.18,0,0-.29,0-.36-.52-.34-.72-.54-.48-.68-.55-.72c-.22-.15-.6-.06-.9-.18,0,0,0-.17,0-.18s-.3,0-.36,0,0-.16,0-.19a12.13,12.13,0,0,0-2.89,0c-.17,0-.23.18-.37.19s-.13.16-.18.18c-.58.16-.69-.08-.9.18-.05.06-.3,0-.36,0s-.08.33-.18.36a1.06,1.06,0,0,1-1.09-.18c.85,0,1.27-.85,1.63-1.09.21-.14.53,0,.72-.18a1.43,1.43,0,0,0,.54-.9c.57.08.48-.49.91-.54.66.12.69-.39,1.26-.37.09-.22,0-.54.18-.72.63-.72-.07-2.45-.54-2.89m8.68,9.22a3,3,0,0,0-2.35.54c-.37.06-.76-.08-1.08,0-.06,0-.28.34-.36.36-.24.07-.71-.09-.73.18s-.9.32-1.08.36c.13.79-.52.81-.54,1.45.88.77,2,.1,2.71,0,0-.21,0-.51.18-.54.2-.24.71-.3.72-.54s.39-.44.55-.55c.32-.09.72-.35.9-.36s.08-.13.18-.18c.29-.16.93-.2.9-.72m72.24.49a3.19,3.19,0,0,1,.91,2.89c0,.37.36.48.54.72,0,.45.28.56.36.91.16.2.38.34.54.54s.41.41.37.72c-.49-.11-.8.16-1.27,0-.1,0-.1-.3-.18-.36s-.31.06-.36,0-.25-.14-.54-.18c-.06,0-.33,0-.37,0-.2-.26-.49-.36-1.26-.36-.43,0-.67.28-1.09.36-.74.13-1.44-.1-2.35,0,0-.7,1.26-.49,1.27-1.45.71,0,1-.39,1.63-.54.31-.06.37-.34.54-.54s.4-.2.36-.54c.45-.15.57-.64.9-.91Zm10.13-3.8a5,5,0,0,1,1.44.72c-.13,1.05.26,2.61-.18,3.26a1.07,1.07,0,0,0-.18.72,1.6,1.6,0,0,0-1.26,1.27,1.08,1.08,0,0,0-.73.18c-.11.06-.3.34-.36.36-.28.1-1.14-.32-1.08.36-.57-.29.23-.71.36-.9.38-2.44-1.22-2.89-2-4.16-.15-.32.29-.53.54-.72s.39-.07.55-.18.11-.33.18-.37.36-.08.54-.18a6.31,6.31,0,0,0,.72-.18s0-.17,0-.18.32.05.36,0a.86.86,0,0,1,.91-.18c.16.05.1.15.18.18m-2.89-15.72c-.48.37-.52,1.16-.91,1.62-.38.09-.34-.26-.36-.54a.48.48,0,0,1,.36-.54,1.69,1.69,0,0,1,1.09-.73c0,.16-.07.17-.18.19m4.33,3.25c0-.57.48-.61.36-1.27s.37-.82.37-1.26c0-.19-.18-.21-.18-.36s-.17-.13-.19-.18c-.16-.61.06-1-.18-1.27-.18-.06-.23-.24-.36-.36s-.34-.14-.36-.36a2.52,2.52,0,0,0-.72-1.09c-.06-.05.06-.3,0-.36s-.29,0-.36,0-.11-.32-.18-.36a3.84,3.84,0,0,0-.55-.18c-.16,0-.14-.17-.18-.18a6.57,6.57,0,0,0-2.17,0s-.29.33-.36.36-.25,0-.36,0a3.78,3.78,0,0,0-1.26.72c0,.37-.53.15-.55.55s-.39.41-.54.54c-.43.39-.81,1-1.45.9-.84-.12-.88-1-2-.9-1,.46-.75,1.58-.55,2.35.09.34.13.95.18,1.08s.17,0,.19,0-.05.3,0,.36c.17.26.61.26.72.36s0,.74.18.91c.45-.09.64.34.9.54s.84.22.73.72c.1.66-.53.38-.55.73s-.78.69-.72,1.26c-.48-.05-.59.25-.54.73-.15.84.55.72.54,1.26a1.32,1.32,0,0,0,.18,1.09s0,.29,0,.36.16,0,.18,0-.05.29,0,.36.31-.06.36,0-.06.32,0,.36a4.94,4.94,0,0,0,.55.18c.17,0,.12.16.18.18.9.29,2.14-.38,2.71.18-.48-.16-.31.32-.54.54s-.72.32-.73.55-.07.08-.18.18a7.66,7.66,0,0,1-.9.72,4.23,4.23,0,0,1-1.09.36c0,.36-.49.23-.36.73-.51-.15-.47.25-.9.18,0,.71-.57.8-.72,1.08s-.09.47-.19.72-.17.27-.18.37-.17.14-.18.18c-.13.59.25,1.5-.18,1.62.05-1.25-.84-1.56-.72-2.89-.89-.57-.43-2.23-.54-3.43.07-.35.7-.15.54-.73V337.4c.2-.22.52-.33.36-.91.19-.32-.33-.3-.36-.36-.25-.54.1-.67-.18-.9-.06-.05,0-.3,0-.36s-.26-.19-.36-.37a1.87,1.87,0,0,1-.36-.9c-.5-.08-.59-.34-.91-.36s-.19-.65-.72-.36c-.24-.46-.59.47-1.09.36a2.25,2.25,0,0,0-1.62.36c0,.14,0,.36-.18.36-.27.7.3.94.36,1.09s0,.25,0,.36c.1.39.46.25.36.72v1.45c.24-.05.09.25.18.36s.52,0,.36.36v2.17c-.07.35-.7.14-.54.72-.19.68.68.29.54.91.1,1.11-.14,1.85,0,2.71.06.33.32.55.36.72a1.62,1.62,0,0,0,.18.54,1.6,1.6,0,0,1,.18,1.09c.23.31.62.47.55,1.08-.24.73-.7,1.24-.91,2-.49-.13-.36.36-.72.36,0,.74-.55,1-.54,1.81-.51,0-1.08.85-1.27,1.08-.05.06-.3-.05-.36,0a3.12,3.12,0,0,0-.72,1.09c-.08.16-.17.06-.18.36s-.14.1-.18.18a1.86,1.86,0,0,0,.18,2.35c.09.15.06.4.18.54s.47.14.54.36c1.13.05,1.58-.59,2.89-.36a9.2,9.2,0,0,1,1.09-.54c.56-.22,1.24-.3,1.44-.54.05-.06.3.05.36,0s0-.31,0-.36a3.93,3.93,0,0,1,1.45,0,1.35,1.35,0,0,1,.72.36c.42.27.84.06,1.09.36,0,.05.29,0,.36,0s0,.16,0,.18c.26.32,1.26-.23,1.63,0s.37.59.9.54c1.13.13,2-.17,2.89,0,.27.05.59.33.91.36.78.08,1.55-.05,2.53,0l.54.55c.42,0,.89-.05,1.08,0s.2.18.18.18c.43.08,1,.05,1.45.18.25.07.31.3.54.36.67.17,1.22-.12,2,0a3.6,3.6,0,0,0,1.63.9c.67.2.51-.45,1.08-.36.33-.09.66.12,1.09,0s.49-.53.72-.54a1.26,1.26,0,0,0,.9-.72c0-.2.28-.22.37-.36s.17-.4.36-.55c0,0,.14,0,.18,0s-.06-.3,0-.36a2.69,2.69,0,0,1,.72-.54c.27,0,.56-.27.72-.36s.25-.3.37-.36.37-.06.54-.18c.59-.47,1.21-.68.9-1.63-.64-.62-1.16-.11-2,0-.59,0-.69-.52-1.44-.36-.63.34-1.4.53-2,.9,0-.48-.38-.47-.72-.54-.54-.09-1,.12-1.63,0-.33-.07-.56-.33-.9-.36-2.29-.21-4.82.16-7.23,0,.1-.57.73-.51,1.08-.73.05,0,.14-.3.18-.36s.3,0,.36,0,0-.15,0-.18.3,0,.36,0,0-.16,0-.18.3.05.36,0,0-.3,0-.36.33-.15.37-.18c.28-.22.47-.2.72-.36s.06-.36.18-.55.44-.18.54-.36a2.84,2.84,0,0,0,.18-.54,1.1,1.1,0,0,0,.18-.72c.37.13.25-.25.37-.36s.28.05.36,0,0-.42.18-.37c-.22-1,.3-1.6.36-2.16a8.3,8.3,0,0,0,0-2.17,3.08,3.08,0,0,0-.36-.73c-.11-.28-.06-.46-.18-.72,0-.06-.32-.1-.36-.18-.13-.23,0-.52-.19-.72s-.7-.22-.72-.55-.21-.06-.36-.18.06-.32,0-.36c-.32-.23-1,0-1.08-.54h-1.45a3,3,0,0,1-.72-.54c-.38-.11-1.19.22-1.27-.18.31.08.41-.19.72-.36a2.89,2.89,0,0,0,.91-.55c0-.06.29.05.36,0s.18-.26.36-.36l.36-.18c.16-.08.39-.07.54-.18s-.06-.35.19-.36c.45,0,.66-.66.72-.91s.15-.11.18-.18c.26-.56.16-.62-.18-.9a4.73,4.73,0,0,1-.18-1.27s-.32,0-.36,0,.06-.44,0-.54-.48-.17-.37-.54c-.68-.28-1.56-.36-2-.9-.46-.15-1.56.35-1.45-.37,0-.29.33-.09.54-.18s.26-.3.36-.36.38-.06.55-.18a3.06,3.06,0,0,0,.36-.36c.66.12.69-.39,1.26-.36M213,328a4.57,4.57,0,0,0,.91.9c0,.34.2.4.18.72.36.19.77.32.9.73s.35.49.54.72.37.62.55.72a1.92,1.92,0,0,0,1.44,0,2.14,2.14,0,0,0,.91-.72c.38-.38.51-.3.54-.9,0-.18.16-.12.18-.19.32-1-.32-1.43-.36-2.34a2.32,2.32,0,0,1-1.09-.73c-.16-.14-.39-.2-.54-.36s.05-.29,0-.36-.41,0-.36-.18c-.51-.16-.72-.22-.9,0l-.55.18c-.22.05-.24,0-.36.18s-.29-.05-.36,0-.14.37-.36.36c-.45.4-1.13.56-1.27,1.27M176.4,349.9c-.28-.88.52-.68.54-1.26.47.37-.07,1.24-.54,1.26m1.08-6c-.3.52-.14-.92-.18-1.27.3-.52.14.93.18,1.27m.36-7.23c-1-.34-1.63.44-3.07.18,0-.21.33-.15.54-.18.6-.06.8-.53,1.63-.36.75-.34,1.17-1,2.17-1.09.17,0,.14-.22.18-.36h1.44c.28.1,0,.19-.18.18H180a.8.8,0,0,1-.54.18c-.22.07-.2.42-.36.54s-.4.07-.54.19-.63.39-.73.72m-3.79-15.19a2.26,2.26,0,0,0-1.63.37c-.15.29-.27.58-.36.72-.59.87,0,3.07.18,4,.37.05.48.36.72.54s.31.5.54.72a7.05,7.05,0,0,0,.91.54c.16.12.21.26.36.36s.54,0,.54.37c-.15.53.32,1.09.36,1.26s.14.38.18.54c.1.4.19.31.37.55s0,.39.18.54.68.14.72.54c-.43.36-1.21.36-1.81.54-.21.05-.2.26-.36.36s-.4.11-.54.19,0,.13-.18.18c-.54.13-.38.31-.91.36-.34,0-.12.6-.54.54-.57-.2-.6.32-.72.36-.32.12-.71,0-1.09.18,0,.36-.49.23-.36.73-1,.17-1.2,1.08-1.62,1.8.47.47.39,1.21.54,1.45s.2.83.36,1.08.53.37.72.55.21.24.36.36.23.27.36.36h2.35a4.57,4.57,0,0,0,.91-.9c.79.29.84-.45,1.08-.55a4.54,4.54,0,0,1,1.45-.18c.2.18.68,1,.18,1.27-.66,0-.38-.94-1.27-.73a3.83,3.83,0,0,1-.72.73c-.15.11-.41.09-.54.18s-.17.46-.54.36h-2a.8.8,0,0,1-.36.72c-.19.63.31,1.24.36,1.45s0,.25,0,.36a2.13,2.13,0,0,0,1.08,1.45c.39.24,1,0,1.09.72-1.49.34-1.5-.79-2.53-.9-.1.1-.5.16-.73.36s-.05.39-.18.54-.32-.06-.36,0,0,.27,0,.36c-.11.43-.37.31-.36.9s.25.61.36,1.09c-.16.88.25,1.2.36,1.81.35.39,1,.43,1.27.72-.05.71.65.67.54,1.45s-.95,1-.9,2a2.23,2.23,0,0,0-1.27.91c-.51-.15-.47.25-.9.18a4.09,4.09,0,0,0-.72.72c-.76.21-1.27.67-2,.91a1.94,1.94,0,0,0-1.63-.55c-.05.26-.4.21-.54.37s0,.35-.18.36a1,1,0,0,0,.36.9c.05,0,0,.3,0,.36.26.71.51.43,1.08.91.07.06.13.28.18.36a3.15,3.15,0,0,0,.37.36c.58,0,.76-.32,1.44-.18s.69.51,1.45.36c.93-.22,1.18-1.1,2.17-1.27,0-.21,0-.51.18-.54s.43-.05.36-.36c.66.12.69-.39,1.26-.36.14-.59.3-1.15,1.09-1.09.83-.12,1,1.25,1.44,1.27.22,0,.08.1.19.18.48.4.47.84,1.08.9a1.69,1.69,0,0,0,.9-.18,3.31,3.31,0,0,0,1.09-1.08s.15,0,.18,0c.23-.19,0-.77.36-.72-.05-.46.07-.84,0-1.27s-.28-.59-.36-.9a1.65,1.65,0,0,1,.18-1.63c-.12.75.62.41.9.54.07,0,.1.32.18.36s.27,0,.37,0,.05.29.18.37a2.72,2.72,0,0,0,.9.18c-.1.36.21.23.36.36s0,.3,0,.36c.61.7,1.62.82,1.81,1.81,0,.54-.47.61-.54,1.08a3.38,3.38,0,0,1,.9,1.63,10.84,10.84,0,0,1,1.81.72,8.58,8.58,0,0,1,.72-.54c0-.05.3,0,.36,0s0-.16,0-.18.31.05.37,0-.07-.44,0-.54.46,0,.54-.19a5,5,0,0,0,.18-.72c.12-.37.28-.58.18-.9.22-.59-.59-.14-.36-.72a1,1,0,0,0-.18-.91c-.06-.05,0-.29,0-.36s-.26-.18-.36-.36-.24-.73-.37-.91-.31.06-.36,0,.06-.29,0-.36c-.35-.4-.65-.43-1.08-.72-.28-.18-.4-.46-.54-.54-.32-.19-.79-.21-1.09-.36-.1-.05-.25-.3-.36-.37s-.27.05-.36,0-.12-.31-.18-.36a9.51,9.51,0,0,1-1.81-1.26c-.44.14-.86-.31-.9-.36s-.75.12-.55-.36c.4-.69,1.4-.78,2.17-1.09.19-.71.75-1,.73-1.81,0-.51-.35-.61-.37-.9s-.11-.08-.18-.18-.06-.42-.18-.54-.59,0-.54-.37-.7-.44-.18-.54c.91-.12,1.32.37,2,0,.51-.45.74-1.18,1.26-1.63v-2c-.32-.17-.3-.67-.72-.73s-.46-.89-.72-.9-.1-.14-.18-.18c-.6-.26-1.16-.34-1.63-.54-.57,0-.6.48-1.27.36-.25-.23-.18-.79-.18-1.27.9.45,1.91,0,2.71-.18.53,0,.56.41,1.09.36.55.12,1.56-.23,1.81.18.19.67-.29,1.2-.36,1.81-.12,1,.1,2,0,3.07,0,.39-.32.73-.37,1.09a12.91,12.91,0,0,0,0,2.71c0,.39.31.31.37.72.08.63-.08,1.21,0,1.81,0,.36.3.52.36.91s0,.65,0,1.08c.11.15.42.34.54.54,0,0,0,.14,0,.18,0,.34.35.47.36.73s.14.09.18.18c.17.35.22,1.25.54,1.26.15,0,.54.66.55.73s.08.08.18.18a4.07,4.07,0,0,1,.36.36c.24.32.17.65.36.9,0,.06.31-.05.36,0s-.06.3,0,.36.4.21.54.36a8.31,8.31,0,0,0,.73.73c.06.05-.06.3,0,.36s.29,0,.36,0,.11.32.18.36a3.42,3.42,0,0,0,.54.18,2.8,2.8,0,0,0,2.35-.18c-.08-.32.39-.84.36-.72.13-.53-.09-1.31,0-2,.34-.26.32-.27.36-.72a8,8,0,0,1-.9-3.44c-.47-.23-.55-.4-1.08-.18a1.16,1.16,0,0,0-.91-1.08c-.05.25-.39.2-.54.36a7.11,7.11,0,0,0-.18.9c0,.15-.16.12-.18.18-.13.32-.29.55-.36.73s0,.36-.18.36-.31-.3-.55-.36-.25-.63-.36-.91c0-.07-.14,0-.18-.18-.11-.46-.21-.43-.18-.9-.47.09-.23-.28-.36-.54s-.31-.43-.36-.73a32.52,32.52,0,0,1,0-4,34.82,34.82,0,0,1,0-4c.07-.52.65-1,.36-1.45.56,0,.54-.4.72-.54s.15,0,.18,0-.05-.3,0-.36.41-.21.55-.36.15-.45.36-.55c-.09-.84.12-1.5,0-2.16a1.42,1.42,0,0,0-.55-.73s0-.3,0-.36a4.24,4.24,0,0,0-1.08-2,.9.9,0,0,0-.9.36c-.48,0-.15.71-.73.55-1.07-.21-1.56.28-2.17.36a5.41,5.41,0,0,0-.9,0c-.41.12-.65.48-1.08.54a7.93,7.93,0,0,1-1.09,0c-.29,0-.69.17-.9-.18.39.17.87-.33.9-.36s.31,0,.36,0c.3,0,.4,0,.54-.18s.3.05.37,0,.07-.32.18-.36c.3-.14.65-.08.9-.19a4.28,4.28,0,0,0,1.45-.72c.19-.23,0-.66.36-.72.13-.45-.25-.66-.36-1.09a9.32,9.32,0,0,0-.18-1.26c0-.05-.32,0-.37,0s0-.29,0-.36l-.36-.55c-.14,0-.35,0-.36-.18-.59.06-1.21-.07-1.81,0s-1,.64-1.26.18c.22-.61.84-.84,1.81-.72a3.24,3.24,0,0,1,1.08-.72c.48-.19,1.29-.17,1.45-.36s.29,0,.36,0,0-.16,0-.18c.33-.41,1.94.3,2.35,0,0-.14.15-.21.36-.18a7.46,7.46,0,0,0,1.08-2.35.8.8,0,0,0-.18-.37c-.08-.11-.28-.23-.36-.36s-.31-.89-.54-.9-.42-.53-.72-.54-.08-.1-.18-.18a4.31,4.31,0,0,0-.37-.37c-1.52.13-2.66-.17-3.79,0-.49.08-.8.45-1.09.55-.57.19-.68-.09-.9.18,0,.05-.3,0-.36,0s0,.16,0,.18c-.3.37-1.53-.27-2,0-.38.1-.58.38-.9.54-1.39-.12-1.69.85-3.08.72.09-.57-.25-.7-.36-1.08-.12-.14-.39-.06-.54-.18s.06-.31,0-.36c-.24-.22-.53-.27-.72-.55" fill="#fff"/><path d="M0,14a1.55,1.55,0,0,0,1.21-.68,9.36,9.36,0,0,0,.85-1.75L6.69.1h.58l4.66,11a14.61,14.61,0,0,0,1.17,2.38,1.22,1.22,0,0,0,1.1.51v.53H7.44V14a4.45,4.45,0,0,0,1.34-.17c.22-.09.32-.31.32-.67a2.64,2.64,0,0,0-.16-.75l-.27-.71-.53-1.26H3.45L2.86,12a4.13,4.13,0,0,0-.27,1.17c0,.3.2.51.6.65A3.93,3.93,0,0,0,4.26,14v.53H0ZM7.83,9.56l-2-4.82H5.65L3.77,9.56Z" fill="#fff"/><path d="M15,14a3.1,3.1,0,0,0,1.27-.21,1.27,1.27,0,0,0,.64-1.25V2.38a1.26,1.26,0,0,0-.6-1.23A3.29,3.29,0,0,0,15,.92V.39h7.29V.92A3.59,3.59,0,0,0,21,1.14a1.25,1.25,0,0,0-.61,1.24V12.49a1.26,1.26,0,0,0,.49,1.17,2.93,2.93,0,0,0,1.46.29v.53H15Z" fill="#fff"/><path d="M22.17,14a2.94,2.94,0,0,0,1.21-.22A1.27,1.27,0,0,0,24,12.49V2.38a1.27,1.27,0,0,0-.56-1.21A3.19,3.19,0,0,0,22.17.92V.39h7.06V.92a2.73,2.73,0,0,0-1.45.4c-.25.21-.38.71-.38,1.5V7.29l4.49-4.54a6.85,6.85,0,0,0,.6-.67.83.83,0,0,0,.14-.48.48.48,0,0,0-.36-.51,7.47,7.47,0,0,0-1.4-.17V.39h6V.92a5.16,5.16,0,0,0-2.68.91,46.11,46.11,0,0,0-4,3.82l6.36,7.88a1,1,0,0,0,.41.32,2.81,2.81,0,0,0,.61.1v.53h-7V14a7.08,7.08,0,0,0,1.29-.08c.23,0,.35-.16.35-.36a.77.77,0,0,0-.12-.34,3.66,3.66,0,0,0-.39-.56L27.93,7.87l-.53.53v4.09a1.28,1.28,0,0,0,.6,1.23,2.91,2.91,0,0,0,1.21.23v.53h-7Z" fill="#fff"/><path d="M37.09,14a3.14,3.14,0,0,0,1.27-.21A1.28,1.28,0,0,0,39,12.49V2.38a1.26,1.26,0,0,0-.6-1.23,3.23,3.23,0,0,0-1.3-.23V.39h7.29V.92A3.59,3.59,0,0,0,43,1.14a1.25,1.25,0,0,0-.61,1.24V12.49a1.27,1.27,0,0,0,.48,1.17,3,3,0,0,0,1.47.29v.53H37.09Z" fill="#fff"/><path d="M44,14a3.22,3.22,0,0,0,1.13-.22,1.18,1.18,0,0,0,.61-1.15V2.29a1.15,1.15,0,0,0-.58-1.12A3.09,3.09,0,0,0,44,.92V.39h6.37a7.9,7.9,0,0,1,5.89,2.05,6.87,6.87,0,0,1,1.84,5,6.71,6.71,0,0,1-1.85,4.79,7.39,7.39,0,0,1-5.66,2.21H44Zm5.35-.46a1.07,1.07,0,0,0,.89.29,4,4,0,0,0,3-1.31q1.19-1.31,1.19-5a10.26,10.26,0,0,0-.64-3.79,3.6,3.6,0,0,0-3.51-2.56c-.54,0-.89.11-1.06.35a1.65,1.65,0,0,0-.16.86V12.57A1.7,1.7,0,0,0,49.36,13.49Z" fill="#fff"/><path d="M72.12,2.11a7.17,7.17,0,0,1,2.15,5.38,7.41,7.41,0,1,1-14.81.11,7.37,7.37,0,0,1,2.06-5.39A7.11,7.11,0,0,1,66.87.07,7.2,7.2,0,0,1,72.12,2.11Zm-2,9.31a13.69,13.69,0,0,0,.47-3.93,10.06,10.06,0,0,0-1-5A3,3,0,0,0,66.87.77Q64.5.77,63.62,3.6a13.75,13.75,0,0,0-.46,3.89,13.6,13.6,0,0,0,.47,3.93q.87,2.78,3.24,2.78C68.43,14.2,69.5,13.27,70.09,11.42Z" fill="#fff"/><path d="M80.8,14A1.53,1.53,0,0,0,82,13.27a9.36,9.36,0,0,0,.85-1.75L87.49.1h.58l4.66,11a14.61,14.61,0,0,0,1.17,2.38A1.22,1.22,0,0,0,95,14v.53H88.25V14a4.51,4.51,0,0,0,1.34-.17c.21-.09.32-.31.32-.67a2.75,2.75,0,0,0-.17-.75c-.06-.19-.16-.43-.27-.71l-.53-1.26H84.26L83.66,12a4.13,4.13,0,0,0-.27,1.17c0,.3.2.51.6.65a3.93,3.93,0,0,0,1.07.12v.53H80.8Zm7.83-4.39-2-4.82h-.18L84.57,9.56Z" fill="#fff"/><path d="M96.22,9.61h.6A6.44,6.44,0,0,0,98.43,13,3.57,3.57,0,0,0,101,14.07a2.43,2.43,0,0,0,2-.72,2.43,2.43,0,0,0,.58-1.54,2,2,0,0,0-.61-1.53,8.23,8.23,0,0,0-1.64-1L100,8.6a8.56,8.56,0,0,1-2.79-2,3.65,3.65,0,0,1-.82-2.41,4.42,4.42,0,0,1,1.08-2.85A4,4,0,0,1,100.73,0a7,7,0,0,1,2.19.35,7.62,7.62,0,0,0,1.21.34.51.51,0,0,0,.47-.2,2,2,0,0,0,.21-.52h.62V4.54h-.58a6.32,6.32,0,0,0-1.44-2.72,3.25,3.25,0,0,0-2.5-1.14,2.25,2.25,0,0,0-1.64.58,1.86,1.86,0,0,0-.6,1.4,1.85,1.85,0,0,0,.56,1.48,13.83,13.83,0,0,0,2.48,1.47l1.54.77a6.21,6.21,0,0,1,1.65,1.15A4,4,0,0,1,106,10.4a4.45,4.45,0,0,1-1.23,3,5,5,0,0,1-3.93,1.4,6.88,6.88,0,0,1-1.26-.12,7.1,7.1,0,0,1-1.25-.36L98,14.15l-.27-.07-.22,0a.5.5,0,0,0-.44.19,2,2,0,0,0-.21.54h-.6Z" fill="#fff"/><path d="M107.82,9.61h.6A6.44,6.44,0,0,0,110,13a3.57,3.57,0,0,0,2.55,1.06,2.43,2.43,0,0,0,2-.72,2.43,2.43,0,0,0,.58-1.54,2,2,0,0,0-.61-1.53,8.23,8.23,0,0,0-1.64-1l-1.33-.67a8.56,8.56,0,0,1-2.79-2A3.65,3.65,0,0,1,108,4.21,4.42,4.42,0,0,1,109,1.36,4,4,0,0,1,112.33,0a7,7,0,0,1,2.19.35,7.62,7.62,0,0,0,1.21.34.51.51,0,0,0,.47-.2,2,2,0,0,0,.21-.52H117V4.54h-.58A6.32,6.32,0,0,0,115,1.82a3.25,3.25,0,0,0-2.5-1.14,2.25,2.25,0,0,0-1.64.58,1.86,1.86,0,0,0-.6,1.4,1.85,1.85,0,0,0,.56,1.48,13.83,13.83,0,0,0,2.48,1.47l1.54.77a6.21,6.21,0,0,1,1.65,1.15,4,4,0,0,1,1.14,2.87,4.45,4.45,0,0,1-1.23,3,5,5,0,0,1-3.93,1.4,6.88,6.88,0,0,1-1.26-.12A7.1,7.1,0,0,1,110,14.3l-.41-.15-.27-.07-.22,0a.5.5,0,0,0-.44.19,2,2,0,0,0-.21.54h-.6Z" fill="#fff"/><path d="M132,2.11a7.17,7.17,0,0,1,2.15,5.38,7.41,7.41,0,1,1-14.81.11,7.41,7.41,0,0,1,2.06-5.39A7.11,7.11,0,0,1,126.77.07,7.2,7.2,0,0,1,132,2.11Zm-2,9.31a13.35,13.35,0,0,0,.47-3.93,10.18,10.18,0,0,0-1-5,3,3,0,0,0-2.7-1.69q-2.37,0-3.24,2.83a13.39,13.39,0,0,0-.46,3.89,13.26,13.26,0,0,0,.47,3.93c.57,1.85,1.65,2.78,3.23,2.78S129.41,13.27,130,11.42Z" fill="#fff"/><path d="M144.49.61a10.48,10.48,0,0,0,1.49.48.75.75,0,0,0,.63-.31,1.39,1.39,0,0,0,.3-.64h.58V5H147a11.31,11.31,0,0,0-1.53-2.5,4.32,4.32,0,0,0-3.32-1.7,3.06,3.06,0,0,0-3,1.81,11.2,11.2,0,0,0-.88,4.86,10.92,10.92,0,0,0,.52,3.68,3.58,3.58,0,0,0,3.59,2.71,5.45,5.45,0,0,0,3-.89,11.4,11.4,0,0,0,1.87-1.66l.62.5a11.78,11.78,0,0,1-2.15,2A6.47,6.47,0,0,1,142,14.9a7.58,7.58,0,0,1-5.18-1.83,6.89,6.89,0,0,1-2.31-5.46,7.27,7.27,0,0,1,2.21-5.51,7.09,7.09,0,0,1,5.09-2A7.55,7.55,0,0,1,144.49.61Z" fill="#fff"/><path d="M148.06,14a3.14,3.14,0,0,0,1.27-.21,1.28,1.28,0,0,0,.63-1.25V2.38a1.26,1.26,0,0,0-.6-1.23,3.23,3.23,0,0,0-1.3-.23V.39h7.29V.92a3.59,3.59,0,0,0-1.34.22,1.26,1.26,0,0,0-.62,1.24V12.49a1.28,1.28,0,0,0,.49,1.17,3,3,0,0,0,1.47.29v.53h-7.29Z" fill="#fff"/><path d="M155.07,14a1.55,1.55,0,0,0,1.21-.68,9.36,9.36,0,0,0,.85-1.75L161.76.1h.58l4.65,11a15.25,15.25,0,0,0,1.18,2.38,1.21,1.21,0,0,0,1.1.51v.53h-6.76V14a4.45,4.45,0,0,0,1.34-.17c.22-.09.32-.31.32-.67a2.64,2.64,0,0,0-.16-.75l-.27-.71-.54-1.26h-4.68L157.93,12a4.13,4.13,0,0,0-.27,1.17c0,.3.2.51.6.65a3.87,3.87,0,0,0,1.07.12v.53h-4.26Zm7.83-4.39-2-4.82h-.17l-1.88,4.82Z" fill="#fff"/><path d="M168,.39h12.56l0,4.2H180a3.83,3.83,0,0,0-1.69-3A5.34,5.34,0,0,0,176,1.06v11a2.14,2.14,0,0,0,.41,1.53A2.56,2.56,0,0,0,178,14v.53H170.6V14a2.42,2.42,0,0,0,1.62-.38,2.1,2.1,0,0,0,.4-1.52v-11a5.43,5.43,0,0,0-2.34.48,3.52,3.52,0,0,0-1.69,3.05H168Z" fill="#fff"/><path d="M180.58,14a3.1,3.1,0,0,0,1.27-.21,1.27,1.27,0,0,0,.64-1.25V2.38a1.26,1.26,0,0,0-.6-1.23,3.29,3.29,0,0,0-1.31-.23V.39h7.29V.92a3.59,3.59,0,0,0-1.34.22,1.25,1.25,0,0,0-.61,1.24V12.49a1.26,1.26,0,0,0,.49,1.17,2.93,2.93,0,0,0,1.46.29v.53h-7.29Z" fill="#fff"/><path d="M200.55,2.11a7.17,7.17,0,0,1,2.15,5.38,7.41,7.41,0,1,1-14.81.11,7.4,7.4,0,0,1,2.05-5.39,7.78,7.78,0,0,1,10.61-.1Zm-2,9.31A13.69,13.69,0,0,0,199,7.49a10.06,10.06,0,0,0-1-5A3,3,0,0,0,195.3.77q-2.37,0-3.25,2.83a13.75,13.75,0,0,0-.46,3.89,13.6,13.6,0,0,0,.47,3.93q.87,2.78,3.24,2.78C196.86,14.2,197.94,13.27,198.52,11.42Z" fill="#fff"/><path d="M202.65,14a2.06,2.06,0,0,0,1.5-.44,1.93,1.93,0,0,0,.33-1.22V2.41c-.64-.71-1-1.13-1.18-1.25a1.09,1.09,0,0,0-.61-.24V.39h4.42l7.17,8.71h.1V3A2.38,2.38,0,0,0,214,1.46a2.25,2.25,0,0,0-1.54-.54V.39h4.48V.92a2.93,2.93,0,0,0-1.31.43q-.33.27-.33,1.23V14.87h-.58L205.54,3.72h-.14V11.9a2.66,2.66,0,0,0,.26,1.36,2,2,0,0,0,1.71.69v.53h-4.72Z" fill="#fff"/><path d="M237.16,2.11a7.13,7.13,0,0,1,2.15,5.38,7.13,7.13,0,0,1-2.15,5.37A7.41,7.41,0,0,1,224.5,7.6a7.41,7.41,0,0,1,2.06-5.39,7.77,7.77,0,0,1,10.6-.1Zm-2,9.31a13.74,13.74,0,0,0,.46-3.93,10.18,10.18,0,0,0-1-5,3,3,0,0,0-2.7-1.69c-1.57,0-2.66.94-3.24,2.83a13.39,13.39,0,0,0-.46,3.89,13.6,13.6,0,0,0,.47,3.93c.58,1.85,1.66,2.78,3.23,2.78S234.55,13.27,235.14,11.42Z" fill="#fff"/><path d="M239.27,14a3,3,0,0,0,1.27-.24,1.28,1.28,0,0,0,.58-1.22V2.39a1.27,1.27,0,0,0-.57-1.22,3.36,3.36,0,0,0-1.28-.25V.39h11.82v4.2h-.51a4.72,4.72,0,0,0-1.3-2.72,5.38,5.38,0,0,0-3.38-.78,2.06,2.06,0,0,0-1.17.21,1,1,0,0,0-.25.78V6.9a2.72,2.72,0,0,0,2.29-.71,5.57,5.57,0,0,0,.9-2.37h.53v7h-.53a4.9,4.9,0,0,0-.86-2.47,2.94,2.94,0,0,0-2.33-.77v4.86c0,.64.19,1,.56,1.22a4,4,0,0,0,1.73.24v.53h-7.5Z" fill="#fff"/><path d="M257.53,14a1.55,1.55,0,0,0,1.21-.68,9.36,9.36,0,0,0,.85-1.75L264.22.1h.58l4.66,11a14.61,14.61,0,0,0,1.17,2.38,1.22,1.22,0,0,0,1.1.51v.53H265V14a4.51,4.51,0,0,0,1.34-.17c.21-.09.32-.31.32-.67a2.75,2.75,0,0,0-.17-.75c-.06-.19-.16-.43-.27-.71l-.53-1.26H261l-.6,1.62a4.13,4.13,0,0,0-.27,1.17c0,.3.2.51.6.65a3.93,3.93,0,0,0,1.07.12v.53h-4.26Zm7.83-4.39-2-4.82h-.18L261.3,9.56Z" fill="#fff"/><path d="M272.5,14a2.09,2.09,0,0,0,1.55-.42,1.85,1.85,0,0,0,.36-1.24V2.38A1.24,1.24,0,0,0,274,1.27a3.19,3.19,0,0,0-1.45-.35V.39h5.26l4.1,9.65h.18L286.17.39h5.26V.92a2.72,2.72,0,0,0-1.45.39c-.26.2-.39.71-.39,1.51v9.23a2.11,2.11,0,0,0,.39,1.51,2.33,2.33,0,0,0,1.45.39v.53H284.5V14a3,3,0,0,0,1.4-.31c.31-.18.46-.59.46-1.23V2.22h-.15L281.1,14.48h-.56l-5.17-12h-.09V11.9a2.41,2.41,0,0,0,.39,1.52,2.31,2.31,0,0,0,1.71.53v.53H272.5Z" fill="#fff"/><path d="M291.14,14.48V14a3,3,0,0,0,1.27-.24,1.28,1.28,0,0,0,.58-1.22V2.38a1.25,1.25,0,0,0-.6-1.22,3.12,3.12,0,0,0-1.25-.24V.39h12v4.2h-.51a4.48,4.48,0,0,0-1.35-2.76,5.91,5.91,0,0,0-3.46-.74,2.36,2.36,0,0,0-1.22.2,1,1,0,0,0-.26.79V6.9a3.24,3.24,0,0,0,2.41-.64,5,5,0,0,0,1-2.44h.53v7h-.53a4.45,4.45,0,0,0-.91-2.51,3.31,3.31,0,0,0-2.47-.73v5.05a1,1,0,0,0,.34.9,2.71,2.71,0,0,0,1.4.24,6.22,6.22,0,0,0,3.26-.77,6.47,6.47,0,0,0,2.24-2.91h.58l-.84,4.34Z" fill="#fff"/><path d="M303.92,14a2.4,2.4,0,0,0,1.45-.39,2.15,2.15,0,0,0,.38-1.51V2.82a2,2,0,0,0-.45-1.57,3,3,0,0,0-1.38-.33V.39h6.71A10.86,10.86,0,0,1,314,.82,3.26,3.26,0,0,1,316.52,4a3.16,3.16,0,0,1-1.31,2.68,5.19,5.19,0,0,1-2.13.94l4.44,5.94a.82.82,0,0,0,.36.32,1.58,1.58,0,0,0,.48.09v.5H314L309.14,8h0v4.09a2.2,2.2,0,0,0,.37,1.48A2.17,2.17,0,0,0,311,14v.53h-7.05Zm8.14-7.23c.59-.37.88-1.21.88-2.52a4.6,4.6,0,0,0-.33-1.92,2.16,2.16,0,0,0-2.12-1.19,1.94,1.94,0,0,0-1.1.21.85.85,0,0,0-.26.69v5.3A6,6,0,0,0,312.06,6.72Z" fill="#fff"/><path d="M317.86,14a3.14,3.14,0,0,0,1.27-.21,1.28,1.28,0,0,0,.63-1.25V2.38a1.26,1.26,0,0,0-.6-1.23,3.27,3.27,0,0,0-1.3-.23V.39h7.29V.92a3.69,3.69,0,0,0-1.35.22,1.27,1.27,0,0,0-.61,1.24V12.49a1.28,1.28,0,0,0,.49,1.17,3,3,0,0,0,1.47.29v.53h-7.29Z" fill="#fff"/><path d="M335.19.61a10.94,10.94,0,0,0,1.49.48.76.76,0,0,0,.64-.31,1.39,1.39,0,0,0,.3-.64h.58V5h-.53a10.94,10.94,0,0,0-1.54-2.5,4.3,4.3,0,0,0-3.31-1.7,3.07,3.07,0,0,0-3,1.81A11.2,11.2,0,0,0,329,7.49a10.92,10.92,0,0,0,.52,3.68,3.58,3.58,0,0,0,3.59,2.71,5.45,5.45,0,0,0,3-.89,11.4,11.4,0,0,0,1.87-1.66l.62.5a12.11,12.11,0,0,1-2.14,2,6.5,6.5,0,0,1-3.67,1.09,7.55,7.55,0,0,1-5.17-1.83,6.87,6.87,0,0,1-2.32-5.46,7.27,7.27,0,0,1,2.21-5.51,7.13,7.13,0,0,1,5.1-2A7.54,7.54,0,0,1,335.19.61Z" fill="#fff"/><path d="M338.8,14a1.53,1.53,0,0,0,1.21-.68,9.36,9.36,0,0,0,.85-1.75L345.49.1h.58l4.66,11a14.61,14.61,0,0,0,1.17,2.38A1.22,1.22,0,0,0,353,14v.53h-6.75V14a4.51,4.51,0,0,0,1.34-.17c.21-.09.32-.31.32-.67a2.75,2.75,0,0,0-.17-.75c-.06-.19-.16-.43-.27-.71l-.53-1.26h-4.68l-.6,1.62a4.13,4.13,0,0,0-.27,1.17c0,.3.2.51.6.65a3.93,3.93,0,0,0,1.07.12v.53H338.8Zm7.83-4.39-2-4.82h-.18l-1.88,4.82Z" fill="#fff"/></svg>