<svg xmlns="http://www.w3.org/2000/svg" width="258" height="667.46" viewBox="0 0 258 667.46"><path d="M171.69,620.15c.63,2.88,2.44,4.94,4.47,6.76,2.89,2.59,5.92,5,8.9,7.53,1.53,1.28,2.28,1.27,3.63-.14a10.27,10.27,0,0,0,1.38-1.87,13.05,13.05,0,0,0,1.67-6.88q0-30,0-60.06c0-2.6.07-5.19.07-7.78a13,13,0,0,0-2.62-8.56,33.87,33.87,0,0,0-15.26-11c-6.94-2.4-11.87.18-13.92,7.22a19.1,19.1,0,0,0-.26,4.08h-16c2.39-2.1,2-4.44,1.15-6.76-.76-2.13-1.66-4.22-2.5-6.32l-2.18-5.49c.64-.2,1.11-.38,1.6-.5,11.17-2.83,22.32-5.7,33.51-8.45,10.49-2.58,21-5.09,31.67-6.92a51.59,51.59,0,0,0,6.2-1.56c.95-.29,2.15-.7,2.09-2s-1.28-1.55-2.24-1.86a17.52,17.52,0,0,0-9.58-.27c-3.72.86-7.43,1.84-11.2,2.33-12.14,1.57-24.3,2.95-36.45,4.37q-11.39,1.33-22.77,2.59c-1.61.18-3.22.31-5.22.49,1.69-1.77,3.8-2.89,2.64-5.62a30.05,30.05,0,0,1,3.26-2.11c2.33-1.13,4.7-2.18,7.09-3.15q9-3.66,18-7.21a21.18,21.18,0,0,0,8-6c1.93-2.19,2-3.63,0-5.79a40,40,0,0,0-4.23-4c-3.24-2.69-6.57-5.28-9.84-7.92-1.06-.85-2-1.85-3.12-2.63a4.18,4.18,0,0,0-6.37,1.22,11.08,11.08,0,0,0-1.14,2.67c-1.19,3.83-2.26,7.7-3.52,11.5a82.05,82.05,0,0,1-6.9,16,18.05,18.05,0,0,1-3.69,4.69,3.4,3.4,0,0,1-.59-.26c-5.79-4.83-12.27-8.66-18.54-12.8-2.16-1.42-4.16-3.07-6.25-4.6a29.07,29.07,0,0,0-3.68-2.5c-2.2-1.1-3.93-.64-5.77,1.33.35.5.71,1,1.08,1.55,3.05,4.26,6.21,8.46,9.12,12.82,2.55,3.82,4.83,7.82,7.19,11.76a20.58,20.58,0,0,1,1.06,2.56c-.65.14-1.08.29-1.51.33-4.59.32-9.17.68-13.76.91a29.15,29.15,0,0,0-7.84,1.21A15,15,0,0,0,82,527.23c2,4.62,4.17,9.08,7.68,12.74a12.14,12.14,0,0,0,1.79,1.48,5.16,5.16,0,0,0,5.66.33,36.38,36.38,0,0,1,7-2.78c5.77-1.44,11.61-2.61,17.43-3.86,2.83-.61,5.67-1.17,8.58-1.77A12.06,12.06,0,0,1,130,540c-1.09,4.6-3.94,7.92-7.8,10.49a12.56,12.56,0,0,0-2.41,1.92,4.23,4.23,0,0,1-2.69,1.35c-2.31.33-4.63.61-6.91,1.07a3,3,0,0,1-2.78-.83,32.64,32.64,0,0,0-4.69-3.41,4.15,4.15,0,0,0-5.35.7A32.23,32.23,0,0,0,90.67,561c1.66,1.48,3.29,2.86,4.83,4.33A17.71,17.71,0,0,1,101,576.34c.37,3.28.77,6.57.93,9.86a196.87,196.87,0,0,1-.06,23.3c-.28,3.68-.63,7.36-.91,11a5.62,5.62,0,0,0,3.48,6,8.23,8.23,0,0,1,4,4.11c.51,1,1,2.11,1.49,3.16a17.81,17.81,0,0,0,1,1.88c1.11,1.66,2.3,1.76,3.6.23a7,7,0,0,0,1.32-2.35,31.47,31.47,0,0,0,1.11-4.7c.29-1.91.39-3.84.57-5.72C121.38,622.27,166.46,619.53,171.69,620.15ZM45.58,635.92c.4-6.47,2.66-11.66,7.6-15.44a43.51,43.51,0,0,1,5.91-3.72c2.63-1.4,5.42-2.49,8-3.89a69.23,69.23,0,0,0,7.81-4.68,17.64,17.64,0,0,0,6.63-9.8,10.64,10.64,0,0,0-1-8.81,40.28,40.28,0,0,0-3.83-5.11,48.49,48.49,0,0,0-13-10.11,41.71,41.71,0,0,1-5-3,31.65,31.65,0,0,1-4.21-4,2.56,2.56,0,0,1,0-3.41,7.8,7.8,0,0,1,5.08-3.61c2.1-.35,4.2-.74,6.31-1.07A39.55,39.55,0,0,0,75.32,557a13.22,13.22,0,0,0,5.36-3.75c1.54-1.88,1.6-3.55.12-5.47a22.78,22.78,0,0,0-2.55-2.65c-1.33-1.24-2.73-2.39-4.06-3.63A12,12,0,0,1,70.72,536a12.8,12.8,0,0,0-2.85-5,9.62,9.62,0,0,0-4.31-2.88,5.6,5.6,0,0,0-5.46,1A33.29,33.29,0,0,1,53,532.57c-3.38,1.76-6.85,3.36-10.36,4.87a25.43,25.43,0,0,1-9.75,2.39,5.32,5.32,0,0,0-1,.15,34.49,34.49,0,0,0-11.56,5.37,1.88,1.88,0,0,0-.85,1.82,3.34,3.34,0,0,0,2.59,3.46,12.29,12.29,0,0,0,4.22.29,35.72,35.72,0,0,0,16.52-6.79,29,29,0,0,1,5.9-3.31,10.41,10.41,0,0,1,6.27-.74c3.14.63,3.9,2.73,1.88,5.18-1.11,1.34-2.18,2.72-3.28,4.09-3.06,3.85-6.12,7.71-9.21,11.53a3.5,3.5,0,0,0-1,2.85,9.21,9.21,0,0,0,1,3.31,43.13,43.13,0,0,0,4.48,6.31c3,3.26,6.11,6.34,9.28,9.4a8.86,8.86,0,0,1,3,7.3,13.89,13.89,0,0,1-1.06,4.5,58.22,58.22,0,0,1-3.77,7,68.39,68.39,0,0,1-9.22,11.5c-6.1,6.2-9.66,13.55-10,22.33-.07,1.74,0,3.48,0,5.34l-1.54,1c-3.43,2.21-6.94,4.32-10.27,6.67-3.17,2.24-6.17,4.71-9.22,7.11-2.34,1.83-3.32,4.57-4.58,7.1-.11.2-.05.48-.1,1.07a12.18,12.18,0,0,0,2.26-.69c1.81-1,3.56-2.12,5.34-3.19,6.27-3.77,12.47-7.66,18.83-11.28a72.53,72.53,0,0,1,16.82-7,22.68,22.68,0,0,1,13.57.1c7.11,2.42,14.26,4.72,21.32,7.26,12.85,4.64,25.61,9.51,38.64,13.61a96.37,96.37,0,0,0,29.36,5,280.19,280.19,0,0,0,29.69-1.37c4.91-.52,9.76-1.41,14.22-3.65a78.7,78.7,0,0,0,16.06-10.17c4.67-4,9.08-8.3,13.53-12.55,5.2-5,10.3-10,15.5-15a38.19,38.19,0,0,1,8.31-6.36A9.71,9.71,0,0,0,257.3,616c.49-.56,1-1.31.49-2.11s-1.39-.65-2.13-.46a19.08,19.08,0,0,0-3.48,1.2c-2.49,1.24-5,2.53-7.35,3.94-12.44,7.34-24.81,14.81-37.3,22.06-5.26,3.05-10.72,5.76-16.17,8.47a21.3,21.3,0,0,1-5.87,1.93c-6.11,1.05-12.28.7-18.41.15q-11.12-1-22.18-2.55a185.55,185.55,0,0,1-26.62-5.43c-4.66-1.36-9.18-3.14-13.81-4.62a187.37,187.37,0,0,0-29.38-6.38,52.7,52.7,0,0,0-27.84,3.09ZM255.1,98.55h-1.68c-10.11,0-20.22,0-30.33,0a43.6,43.6,0,0,1-6.94-.66,71,71,0,0,1-20.93-7.55c-.57-.3-1.16-.56-1.74-.83-2.29-1.07-4.66-2-6.84-3.22a151.48,151.48,0,0,1-21.7-15c-9.58-7.95-19.58-15.34-29.76-22.5a64.42,64.42,0,0,0-18.68-9.34,10.22,10.22,0,0,1-1.08-.49c1.74-1.91,3.43-3.67,5-5.52A69.68,69.68,0,0,0,126,26.62c3-4.52,2.74-8.59-.73-12.63a31.21,31.21,0,0,0-7.79-6.37A77.72,77.72,0,0,0,99.8.16a8,8,0,0,0-1-.16c0,.51-.09,1-.11,1.4-.25,6-.36,12-.78,18A49.48,49.48,0,0,1,90.22,43.2a320.46,320.46,0,0,1-33,42.66C47,97,35.9,106.9,22.92,114.64c-7.19,4.29-14.42,8.45-22.57,10.7-.08,0-.13.18-.35.5,5.37.36,10.6.84,15.83,1,3.48.12,7-.14,10.47-.36a9.11,9.11,0,0,0,6-2.85c5-4.89,10.09-9.69,15.21-14.46,14-13,28.13-25.89,41.48-39.58A208.29,208.29,0,0,0,108.4,47.38L110.16,45a35.24,35.24,0,0,1,13.28,7.15c11.31,10.29,22.55,20.66,34,30.79,6.84,6,13.87,11.91,21.11,17.46,5.15,3.94,10.28,7.87,15.23,12a60.22,60.22,0,0,0,6.77,4.88,12.36,12.36,0,0,0,8.6,1.59,49.63,49.63,0,0,0,10.1-2.74C231.72,111.47,243.14,104.63,255.1,98.55ZM146.92,294.45c0,1.08,0,1.78,0,2.49-.13,8-.4,16.07-.32,24.09a74.89,74.89,0,0,0,1.73,16.2,100.12,100.12,0,0,0,8.1,21.39c6.17,12.59,13.6,24.44,21.36,36.09a75.7,75.7,0,0,0,13,14.9c5.54,4.88,11.56,9,18.6,11.41,5.69,2,11.33,2.32,17-.14a78.83,78.83,0,0,0,19.81-12.5,2.47,2.47,0,0,0,.89-2c0-2.2.13-4.4.3-6.6.61-7.89,2.22-15.63,3.48-23.43.62-3.82.91-7.7,1.28-11.56a11.06,11.06,0,0,0-.59-3.91c-.74,1-1.24,1.71-1.69,2.4a107.46,107.46,0,0,0-8.06,14.4,58.82,58.82,0,0,1-6.54,11.22c-4,5.21-8.93,9.21-15.38,11-8.94,2.47-17.33.89-25.21-3.75a38.13,38.13,0,0,1-14.31-15.28,129.75,129.75,0,0,1-14-40.18A46.19,46.19,0,0,1,166,326a76,76,0,0,1,3.65-13.08c1-2.8,1.91-5.64,2.69-8.51a11.08,11.08,0,0,0-1.76-9.78,31.38,31.38,0,0,0-6.26-6.6c-2.65-2.08-5.34-4.11-8-6.15a2,2,0,0,0-1-.48,46.72,46.72,0,0,0-5.8.23c-2.18.31-3.1,1.5-3.27,3.7-.05.63-.06,1.27-.1,2-1.37.13-2.66.16-3.92.38-9.5,1.66-19,3.31-28.49,5.06-14.83,2.75-29.63,5.64-44.47,8.36-12.41,2.28-24.86,4.39-37.29,6.62a11.62,11.62,0,0,0-3.29,1.11,2.39,2.39,0,0,0-.93,3.89,12.15,12.15,0,0,0,2.44,2.47,26.45,26.45,0,0,0,8.1,4.1,18.48,18.48,0,0,0,11.64.49c1.24-.39,2.53-.61,3.76-1,9.54-3.09,19.09-6.16,28.61-9.33a346.61,346.61,0,0,1,59-14.37C143.06,294.8,144.91,294.67,146.92,294.45ZM87.52,191.08c2,.13,3.74.25,5.47.35,10.75.57,21.5.38,32.24-.08a217.23,217.23,0,0,0,28-2.65,34.48,34.48,0,0,0,9.5-2.67c1.47-.74,1.61-1.11.92-2.59a9.06,9.06,0,0,1-.56-5.87,18.11,18.11,0,0,1,2.56-6c1.18-1.85,2.51-3.62,3.68-5.48a55.07,55.07,0,0,0,3.53-6,17.88,17.88,0,0,0-3.6-20.27A28.34,28.34,0,0,0,158,133.1a69.86,69.86,0,0,0-19.64-3.4,191.65,191.65,0,0,0-34.69,1.7c-6.66.88-13.28,2.13-19.92,3.16a2.29,2.29,0,0,1-1.59-.33,8.78,8.78,0,0,0-7.33-1.66c-2.1.34-4.24.58-6.32,1a58.38,58.38,0,0,0-6.33,1.79A5.55,5.55,0,0,0,59,138.11c-.69,1.33-.64,2,.42,3.11q4.63,4.71,9.33,9.34a6.21,6.21,0,0,1,2,4.24c.15,2.58.48,5.16.82,7.72q1.86,14.34,3.78,28.68c.25,1.88.56,3.75.86,5.78,3.41-1.28,6.54-2.5,9.7-3.63C87,193,87.69,192.51,87.52,191.08ZM98,392.41l-.52.27a35.79,35.79,0,0,1-3.86-3.15c-2.66-2.82-5.18-5.78-7.74-8.7-1.28-1.46-2.47-3-3.81-4.41A4,4,0,0,0,80,375.18a4.85,4.85,0,0,0-4,1.68c-1,.95-2,1.88-1.55,3.51a6,6,0,0,1-.06,1.93c-.51,5.2-2.84,9.64-5.9,13.74a57.69,57.69,0,0,1-12,11.57A123.61,123.61,0,0,1,35,420.07a10.35,10.35,0,0,0-2.38,1.6c-.62.53-1.33,1.23-1,2.15s1.33,1,2.16,1a27,27,0,0,0,12.43-1.42c5.94-2.4,11.86-4.87,17.68-7.54a52.93,52.93,0,0,0,7.86-4.6C76.88,407.77,81.86,404,87,400.53c2.83-1.93,5.85-3.59,8.81-5.33a18.15,18.15,0,0,1,2-.86c0,1,0,1.69,0,2.4-.26,7-.55,14-.79,21a4.86,4.86,0,0,0,.39,2.42c2,3.53,4.11,7.05,6.35,10.45a18.23,18.23,0,0,0,6,5.5,6.58,6.58,0,0,0,3.85,1.15,3.8,3.8,0,0,0,3.91-4,15.43,15.43,0,0,0-.42-3.65q-2.82-11.81-5.75-23.57c-1.72-7-3.14-14-3.24-21.27-.08-5.83,0-11.67,0-17.5a14.76,14.76,0,0,1,.16-1.53c2.32-.21,4.5-.44,6.7-.59q11.24-.8,22.48-1.53a14.57,14.57,0,0,0,9.93-3.77,2.2,2.2,0,0,0,.61-1.7c-.11-.76-.94-.74-1.59-.76-.32,0-.65,0-1,0l-32.62,1.49-4.68.22c0-.61-.09-1-.09-1.37-.1-10.75-.28-21.51-.23-32.26a5.66,5.66,0,0,0-2.59-5.06A24.48,24.48,0,0,0,97,316.55a10.66,10.66,0,0,0-5.38.08,17.16,17.16,0,0,0-6.85,3.93,1.66,1.66,0,0,0-.51,1.32,29.8,29.8,0,0,0,1.34,4.83,3.11,3.11,0,0,0,3.43,2c1.41-.16,2.82-.35,4.24-.48,1.63-.14,2,0,2.37,1.59a53.41,53.41,0,0,1,1.5,7.8c.5,5.48.77,11,1.07,16.47.1,1.87,0,3.74,0,5.72-.71.1-1.34.22-2,.29-3.67.41-7.35.75-11,1.23S77.82,362.6,74,362.58c-5.47,0-10.85-.83-16.26-1.39-4.18-.43-8.38-.7-12.57-.95a6.25,6.25,0,0,0-3.8.83c2.81,4.72,5.71,9.21,9.71,12.91a10.38,10.38,0,0,0,8.24,2.68,16.06,16.06,0,0,0,9.26-4.1,12.58,12.58,0,0,1,5.11-2.68A44.53,44.53,0,0,1,79,368.76c5-.6,10-1.08,15.06-1.59,1.33-.14,2.66-.24,4.28-.38C98.26,375.48,98.13,383.94,98,392.41ZM50.09,236.61a3.81,3.81,0,0,0-.17.92c.23,3.74.39,7.5.77,11.23s1.67,6.91,5.25,8.75a2.47,2.47,0,0,1,1.18,2.1,6.29,6.29,0,0,1-1.77,5.69c-2.33,2.25-4.55,4.62-7,6.74-8.88,7.77-18.36,14.79-27.83,21.81-4.11,3-7.17,7.08-10,11.31a9.58,9.58,0,0,0-.78,2.32,3,3,0,0,0,2.68-.1c2.06-.93,4.16-1.8,6.17-2.84,14.5-7.5,28.6-15.71,42.55-24.17a110.2,110.2,0,0,0,9.7-6.79,48.39,48.39,0,0,0,5.21-4.92,5.55,5.55,0,0,0,1.62-4.24,19.2,19.2,0,0,1,.15-2.19c.67-.13,1.23-.26,1.8-.34,12.78-1.61,25.57-3.1,38.33-4.87,14.74-2,29.45-4.39,44.18-6.49a21.21,21.21,0,0,0,9.78-4l.79-.57a132.39,132.39,0,0,0,15.13-13.36,3.62,3.62,0,0,0,.42-.75A11.27,11.27,0,0,0,187,232c-6.68,1.19-13.41,2.23-20,3.65-8.41,1.81-16.73,4-25.13,5.9-19.08,4.21-38.19,8.3-57.29,12.43-2.39.52-4.79,1-7.13,1.44-.81-1.46-1.45-2.81-2.26-4a24.06,24.06,0,0,0-6.69-6.42c-5.44-3.74-11.49-6.19-17.69-8.32A2.27,2.27,0,0,0,50.09,236.61Zm105.31-122a95.06,95.06,0,0,0-4.93-12.13c-.43-.86-.94-1.69-1.41-2.54a4.21,4.21,0,0,0-3.95-2.37,36.18,36.18,0,0,0-5.21.33,61.91,61.91,0,0,0-14.12,4.15,57.56,57.56,0,0,1-15.8,3.77c-8.42,1-16.88,1.53-25.36,1.72-1.81,0-3.63.07-5.43.27A14.6,14.6,0,0,0,72,110.43c-1.43,1.06-1.54,1.89-.39,3.25A8.44,8.44,0,0,0,78,117.11c3.36.09,6.72.42,10.08.56,10.22.44,20.43,1,30.65,1.21a140.06,140.06,0,0,0,26.08-2.24C148.26,116.07,151.67,115.36,155.4,114.65ZM77.71,272.79a19.84,19.84,0,0,0,2.19,8.45c1.32,2.33,3.23,3.72,6,3.5,3.35-.27,6.72-.46,10-1a181.9,181.9,0,0,0,29.34-7.4c3.68-1.22,7.34-2.52,11-3.81a10,10,0,0,0,5.82-4.58c.73-1.36,1.12-2.85.2-4.24s-2.35-1.15-3.71-.94c-6.4,1-12.79,2-19.17,3.08-11.37,1.88-22.73,3.81-34.09,5.71C82.86,272,80.38,272.37,77.71,272.79Zm36.07,104.57a9.75,9.75,0,0,0,5.8,8,43.22,43.22,0,0,1,13.68,9.05,41.73,41.73,0,0,1,4.42,5.14,10,10,0,0,1,1.92,6.18,17.58,17.58,0,0,0,.81,5.14,5,5,0,0,0,5.76,3.56,13.54,13.54,0,0,0,3-.66c5.59-2,10.16-5.6,14.34-9.74a3.5,3.5,0,0,0,.24-.3,2.94,2.94,0,0,0,0-3.92,20.56,20.56,0,0,0-2.37-2.29c-5.74-5-12.32-8.77-19.15-12.09a83,83,0,0,0-21.74-7.55A22,22,0,0,0,113.78,377.36ZM34.6,491.91c.36.49.69.95,1,1.4,2.35,3,4.81,5.93,7,9q4.16,5.73,8,11.7a13.08,13.08,0,0,1,1.95,4.6,3.23,3.23,0,0,0,3,3,33.13,33.13,0,0,0,6.37.22,18.33,18.33,0,0,0,8.65-2.57c1.81-1.17,2.13-2.35.85-4a33.19,33.19,0,0,0-4.31-4.71,132.61,132.61,0,0,0-19.06-14c-1.7-1-3.31-2.25-5-3.37a33.57,33.57,0,0,0-3.4-2.22A4.08,4.08,0,0,0,34.6,491.91Zm88.57-163.18c-.08,5.33-1.65,9.35-5.07,12.65a29,29,0,0,0-3.59,4.3c-.72,1-1.48,2.34-.53,3.59s2.23.82,3.44.6a40.07,40.07,0,0,0,14.91-5.81c5.06-3.32,7.11-8.39,7.17-14.28a4.87,4.87,0,0,0-1.22-3.14,18.12,18.12,0,0,0-7.91-5.1,8,8,0,0,0-6.72.75c-1.41.87-1.39.88-1.09,2.48S123,327.83,123.17,328.73Zm-68.35,9.33c1.82.69,3.28,1.22,4.71,1.8,7.08,2.83,13.32,6.85,18.06,13a7,7,0,0,0,.79.85,3.17,3.17,0,0,0,3.74.68,3.36,3.36,0,0,0,1.65-3.64,15.05,15.05,0,0,0-.89-2.76,63,63,0,0,0-8.35-14.38A37.79,37.79,0,0,0,71,329.76a5.11,5.11,0,0,0-6.27-.87C60.57,330.92,57.75,334.33,54.82,338.06Z" fill="#fff"/><path d="M171.69,620.15c-5.23-.62-50.31,2.12-54.16,3-.18,1.88-.28,3.81-.57,5.72a31.47,31.47,0,0,1-1.11,4.7,7,7,0,0,1-1.32,2.35c-1.3,1.53-2.49,1.43-3.6-.23a17.81,17.81,0,0,1-1-1.88c-.51-1-1-2.11-1.49-3.16a8.23,8.23,0,0,0-4-4.11,5.62,5.62,0,0,1-3.48-6c.28-3.68.63-7.36.91-11a196.87,196.87,0,0,0,.06-23.3c-.16-3.29-.56-6.58-.93-9.86a17.71,17.71,0,0,0-5.54-11.06c-1.54-1.47-3.17-2.85-4.83-4.33a32.23,32.23,0,0,1,6.67-9.67,4.15,4.15,0,0,1,5.35-.7,32.64,32.64,0,0,1,4.69,3.41,3,3,0,0,0,2.78.83c2.28-.46,4.6-.74,6.91-1.07a4.23,4.23,0,0,0,2.69-1.35,12.56,12.56,0,0,1,2.41-1.92c3.86-2.57,6.71-5.89,7.8-10.49a12.06,12.06,0,0,0,.17-6.62c-2.91.6-5.75,1.16-8.58,1.77-5.82,1.25-11.66,2.42-17.43,3.86a36.38,36.38,0,0,0-7,2.78,5.16,5.16,0,0,1-5.66-.33A12.14,12.14,0,0,1,89.66,540c-3.51-3.66-5.7-8.12-7.68-12.74a15,15,0,0,1,6.63-4.08,29.15,29.15,0,0,1,7.84-1.21c4.59-.23,9.17-.59,13.76-.91.43,0,.86-.19,1.51-.33a20.58,20.58,0,0,0-1.06-2.56c-2.36-3.94-4.64-7.94-7.19-11.76-2.91-4.36-6.07-8.56-9.12-12.82-.37-.52-.73-1.05-1.08-1.55,1.84-2,3.57-2.43,5.77-1.33a29.07,29.07,0,0,1,3.68,2.5c2.09,1.53,4.09,3.18,6.25,4.6,6.27,4.14,12.75,8,18.54,12.8a3.4,3.4,0,0,0,.59.26,18.05,18.05,0,0,0,3.69-4.69,82.05,82.05,0,0,0,6.9-16c1.26-3.8,2.33-7.67,3.52-11.5a11.08,11.08,0,0,1,1.14-2.67,4.18,4.18,0,0,1,6.37-1.22c1.11.78,2.06,1.78,3.12,2.63,3.27,2.64,6.6,5.23,9.84,7.92a40,40,0,0,1,4.23,4c2,2.16,1.88,3.6,0,5.79a21.18,21.18,0,0,1-8,6q-9,3.57-18,7.21c-2.39,1-4.76,2-7.09,3.15a30.05,30.05,0,0,0-3.26,2.11c1.16,2.73-.95,3.85-2.64,5.62,2-.18,3.61-.31,5.22-.49q11.38-1.27,22.77-2.59c12.15-1.42,24.31-2.8,36.45-4.37,3.77-.49,7.48-1.47,11.2-2.33a17.52,17.52,0,0,1,9.58.27c1,.31,2.17.62,2.24,1.86s-1.14,1.68-2.09,2a51.59,51.59,0,0,1-6.2,1.56c-10.66,1.83-21.18,4.34-31.67,6.92-11.19,2.75-22.34,5.62-33.51,8.45-.49.12-1,.3-1.6.5l2.18,5.49c.84,2.1,1.74,4.19,2.5,6.32.83,2.32,1.24,4.66-1.15,6.76h16a19.1,19.1,0,0,1,.26-4.08c2.05-7,7-9.62,13.92-7.22a33.87,33.87,0,0,1,15.26,11,13,13,0,0,1,2.62,8.56c0,2.59-.07,5.18-.07,7.78q0,30,0,60.06a13.05,13.05,0,0,1-1.67,6.88,10.27,10.27,0,0,1-1.38,1.87c-1.35,1.41-2.1,1.42-3.63.14-3-2.5-6-4.94-8.9-7.53C174.13,625.09,172.32,623,171.69,620.15ZM116.11,575l55.53-3.73a29.4,29.4,0,0,0-.82-9.67,11.56,11.56,0,0,0-.77-1.77,2.55,2.55,0,0,0-2.66-1.47c-5.3.23-10.61.26-15.91.51-10.79.51-21.58,1.12-32.37,1.7-1.8.1-3.6.27-5.29.4C114.59,565.64,115.34,570.27,116.11,575Zm.46,21.34c9.45-.85,18.53-1.78,27.62-2.46s18.31-1.11,27.59-1.65c0-4.28.14-8.38-.08-12.78-18.57-.75-36.86,1-55.13,2Zm55.13,15.38V600.2a60.55,60.55,0,0,0-9.95-.37c-14.37.41-28.7,1.54-43,2.66-.68.06-1.35.22-2.29.37.33,4.59.65,9,1,13.56Z"/><path d="M45.58,635.92l1.67-.62a52.7,52.7,0,0,1,27.84-3.09,187.37,187.37,0,0,1,29.38,6.38c4.63,1.48,9.15,3.26,13.81,4.62a185.55,185.55,0,0,0,26.62,5.43q11.06,1.54,22.18,2.55c6.13.55,12.3.9,18.41-.15a21.3,21.3,0,0,0,5.87-1.93c5.45-2.71,10.91-5.42,16.17-8.47,12.49-7.25,24.86-14.72,37.3-22.06,2.39-1.41,4.86-2.7,7.35-3.94a19.08,19.08,0,0,1,3.48-1.2c.74-.19,1.61-.35,2.13.46s0,1.55-.49,2.11a9.71,9.71,0,0,1-2.53,2.35,38.19,38.19,0,0,0-8.31,6.36c-5.2,5-10.3,10-15.5,15-4.45,4.25-8.86,8.56-13.53,12.55a78.7,78.7,0,0,1-16.06,10.17c-4.46,2.24-9.31,3.13-14.22,3.65a280.19,280.19,0,0,1-29.69,1.37,96.37,96.37,0,0,1-29.36-5c-13-4.1-25.79-9-38.64-13.61-7.06-2.54-14.21-4.84-21.32-7.26a22.68,22.68,0,0,0-13.57-.1,72.53,72.53,0,0,0-16.82,7c-6.36,3.62-12.56,7.51-18.83,11.28-1.78,1.07-3.53,2.18-5.34,3.19a12.18,12.18,0,0,1-2.26.69c0-.59,0-.87.1-1.07,1.26-2.53,2.24-5.27,4.58-7.1,3.05-2.4,6.05-4.87,9.22-7.11,3.33-2.35,6.84-4.46,10.27-6.67l1.54-1c0-1.86-.06-3.6,0-5.34.36-8.78,3.92-16.13,10-22.33a68.39,68.39,0,0,0,9.22-11.5,58.22,58.22,0,0,0,3.77-7,13.89,13.89,0,0,0,1.06-4.5,8.86,8.86,0,0,0-3-7.3c-3.17-3.06-6.32-6.14-9.28-9.4A43.13,43.13,0,0,1,44.39,567a9.21,9.21,0,0,1-1-3.31,3.5,3.5,0,0,1,1-2.85c3.09-3.82,6.15-7.68,9.21-11.53,1.1-1.37,2.17-2.75,3.28-4.09,2-2.45,1.26-4.55-1.88-5.18a10.41,10.41,0,0,0-6.27.74,29,29,0,0,0-5.9,3.31,35.72,35.72,0,0,1-16.52,6.79,12.29,12.29,0,0,1-4.22-.29,3.34,3.34,0,0,1-2.59-3.46,1.88,1.88,0,0,1,.85-1.82A34.49,34.49,0,0,1,31.91,540a5.32,5.32,0,0,1,1-.15,25.43,25.43,0,0,0,9.75-2.39c3.51-1.51,7-3.11,10.36-4.87a33.29,33.29,0,0,0,5.12-3.49,5.6,5.6,0,0,1,5.46-1,9.62,9.62,0,0,1,4.31,2.88,12.8,12.8,0,0,1,2.85,5,12,12,0,0,0,3.47,5.52c1.33,1.24,2.73,2.39,4.06,3.63a22.78,22.78,0,0,1,2.55,2.65c1.48,1.92,1.42,3.59-.12,5.47A13.22,13.22,0,0,1,75.32,557a39.55,39.55,0,0,1-9.41,2.28c-2.11.33-4.21.72-6.31,1.07a7.8,7.8,0,0,0-5.08,3.61,2.56,2.56,0,0,0,0,3.41,31.65,31.65,0,0,0,4.21,4,41.71,41.71,0,0,0,5,3,48.49,48.49,0,0,1,13,10.11,40.28,40.28,0,0,1,3.83,5.11,10.64,10.64,0,0,1,1,8.81,17.64,17.64,0,0,1-6.63,9.8,69.23,69.23,0,0,1-7.81,4.68c-2.62,1.4-5.41,2.49-8,3.89a43.51,43.51,0,0,0-5.91,3.72C48.24,624.26,46,629.45,45.58,635.92Z"/><path d="M255.1,98.55c-12,6.08-23.38,12.92-35.85,17.6a49.63,49.63,0,0,1-10.1,2.74,12.36,12.36,0,0,1-8.6-1.59,60.22,60.22,0,0,1-6.77-4.88c-4.95-4.18-10.08-8.11-15.23-12-7.24-5.55-14.27-11.41-21.11-17.46-11.45-10.13-22.69-20.5-34-30.79A35.24,35.24,0,0,0,110.16,45l-1.76,2.41A208.29,208.29,0,0,1,89,69.6C75.62,83.29,61.48,96.16,47.49,109.18c-5.12,4.77-10.22,9.57-15.21,14.46a9.11,9.11,0,0,1-6,2.85c-3.48.22-7,.48-10.47.36-5.23-.17-10.46-.65-15.83-1,.22-.32.27-.48.35-.5,8.15-2.25,15.38-6.41,22.57-10.7C35.9,106.9,47,97,57.17,85.86A320.46,320.46,0,0,0,90.22,43.2a49.48,49.48,0,0,0,7.66-23.76c.42-6,.53-12,.78-18,0-.44.07-.89.11-1.4a8,8,0,0,1,1,.16,77.72,77.72,0,0,1,17.66,7.46A31.21,31.21,0,0,1,125.25,14c3.47,4,3.74,8.11.73,12.63a69.68,69.68,0,0,1-5.54,6.75c-1.59,1.85-3.28,3.61-5,5.52a10.22,10.22,0,0,0,1.08.49,64.42,64.42,0,0,1,18.68,9.34c10.18,7.16,20.18,14.55,29.76,22.5a151.48,151.48,0,0,0,21.7,15c2.18,1.24,4.55,2.15,6.84,3.22.58.27,1.17.53,1.74.83a71,71,0,0,0,20.93,7.55,43.6,43.6,0,0,0,6.94.66c10.11.07,20.22,0,30.33,0Z"/><path d="M146.92,294.45c-2,.22-3.86.35-5.7.62a346.61,346.61,0,0,0-59,14.37c-9.52,3.17-19.07,6.24-28.61,9.33-1.23.39-2.52.61-3.76,1a18.48,18.48,0,0,1-11.64-.49,26.45,26.45,0,0,1-8.1-4.1,12.15,12.15,0,0,1-2.44-2.47,2.39,2.39,0,0,1,.93-3.89,11.62,11.62,0,0,1,3.29-1.11c12.43-2.23,24.88-4.34,37.29-6.62,14.84-2.72,29.64-5.61,44.47-8.36,9.48-1.75,19-3.4,28.49-5.06,1.26-.22,2.55-.25,3.92-.38,0-.73,0-1.37.1-2,.17-2.2,1.09-3.39,3.27-3.7a46.72,46.72,0,0,1,5.8-.23,2,2,0,0,1,1,.48c2.68,2,5.37,4.07,8,6.15a31.38,31.38,0,0,1,6.26,6.6,11.08,11.08,0,0,1,1.76,9.78c-.78,2.87-1.71,5.71-2.69,8.51A76,76,0,0,0,166,326a46.19,46.19,0,0,0,.46,14.7,129.75,129.75,0,0,0,14,40.18,38.13,38.13,0,0,0,14.31,15.28c7.88,4.64,16.27,6.22,25.21,3.75,6.45-1.78,11.36-5.78,15.38-11a58.82,58.82,0,0,0,6.54-11.22,107.46,107.46,0,0,1,8.06-14.4c.45-.69.95-1.36,1.69-2.4a11.06,11.06,0,0,1,.59,3.91c-.37,3.86-.66,7.74-1.28,11.56-1.26,7.8-2.87,15.54-3.48,23.43-.17,2.2-.26,4.4-.3,6.6a2.47,2.47,0,0,1-.89,2,78.83,78.83,0,0,1-19.81,12.5c-5.71,2.46-11.35,2.11-17,.14-7-2.43-13.06-6.53-18.6-11.41a75.7,75.7,0,0,1-13-14.9c-7.76-11.65-15.19-23.5-21.36-36.09a100.12,100.12,0,0,1-8.1-21.39A74.89,74.89,0,0,1,146.6,321c-.08-8,.19-16.06.32-24.09C146.93,296.23,146.92,295.53,146.92,294.45Z"/><path d="M87.52,191.08c.17,1.43-.54,1.9-1.56,2.27-3.16,1.13-6.29,2.35-9.7,3.63-.3-2-.61-3.9-.86-5.78q-1.91-14.34-3.78-28.68c-.34-2.56-.67-5.14-.82-7.72a6.21,6.21,0,0,0-2-4.24q-4.71-4.62-9.33-9.34c-1.06-1.08-1.11-1.78-.42-3.11a5.55,5.55,0,0,1,3.18-2.71,58.38,58.38,0,0,1,6.33-1.79c2.08-.46,4.22-.7,6.32-1a8.78,8.78,0,0,1,7.33,1.66,2.29,2.29,0,0,0,1.59.33c6.64-1,13.26-2.28,19.92-3.16a191.65,191.65,0,0,1,34.69-1.7A69.86,69.86,0,0,1,158,133.1a28.34,28.34,0,0,1,11.26,6.65,17.88,17.88,0,0,1,3.6,20.27,55.07,55.07,0,0,1-3.53,6c-1.17,1.86-2.5,3.63-3.68,5.48a18.11,18.11,0,0,0-2.56,6,9.06,9.06,0,0,0,.56,5.87c.69,1.48.55,1.85-.92,2.59a34.48,34.48,0,0,1-9.5,2.67,217.23,217.23,0,0,1-28,2.65c-10.74.46-21.49.65-32.24.08C91.26,191.33,89.53,191.21,87.52,191.08Zm.68-12.43c1.59.11,3.06.26,4.53.3,8.8.28,17.6.57,26.4.78q6.12.15,12.23,0a24.63,24.63,0,0,0,8.35-1.62c4.78-1.85,7.07-5.28,6.7-10.4-.38-5.36-.84-10.72-1.54-16a35.21,35.21,0,0,0-2.06-7.85c-1.56-4.07-4.71-6.21-9.11-6.39a18,18,0,0,0-1.94,0c-4.45.29-8.93.4-13.36.95-9.11,1.15-18.2,2.53-27.3,3.8-1.57.22-3.17.36-5,.56C89.26,154.57,88,166.58,88.2,178.65Z"/><path d="M98,392.41c.12-8.47.25-16.93.37-25.62-1.62.14-2.95.24-4.28.38-5,.51-10,1-15.06,1.59a44.53,44.53,0,0,0-5.32,1.12,12.58,12.58,0,0,0-5.11,2.68,16.06,16.06,0,0,1-9.26,4.1A10.38,10.38,0,0,1,51.11,374c-4-3.7-6.9-8.19-9.71-12.91a6.25,6.25,0,0,1,3.8-.83c4.19.25,8.39.52,12.57.95,5.41.56,10.79,1.36,16.26,1.39,3.79,0,7.46-.75,11.18-1.24s7.33-.82,11-1.23c.64-.07,1.27-.19,2-.29,0-2,.08-3.85,0-5.72-.3-5.49-.57-11-1.07-16.47a53.41,53.41,0,0,0-1.5-7.8c-.39-1.61-.74-1.73-2.37-1.59-1.42.13-2.83.32-4.24.48a3.11,3.11,0,0,1-3.43-2,29.8,29.8,0,0,1-1.34-4.83,1.66,1.66,0,0,1,.51-1.32,17.16,17.16,0,0,1,6.85-3.93,10.66,10.66,0,0,1,5.38-.08,24.48,24.48,0,0,1,8.21,3.87,5.66,5.66,0,0,1,2.59,5.06c-.05,10.75.13,21.51.23,32.26,0,.38.05.76.09,1.37l4.68-.22,32.62-1.49c.32,0,.65,0,1,0,.65,0,1.48,0,1.59.76a2.2,2.2,0,0,1-.61,1.7,14.57,14.57,0,0,1-9.93,3.77q-11.25.75-22.48,1.53c-2.2.15-4.38.38-6.7.59a14.76,14.76,0,0,0-.16,1.53c0,5.83,0,11.67,0,17.5.1,7.23,1.52,14.27,3.24,21.27q2.91,11.78,5.75,23.57a15.43,15.43,0,0,1,.42,3.65,3.8,3.8,0,0,1-3.91,4,6.58,6.58,0,0,1-3.85-1.15,18.23,18.23,0,0,1-6-5.5c-2.24-3.4-4.31-6.92-6.35-10.45a4.86,4.86,0,0,1-.39-2.42c.24-7,.53-14,.79-21,0-.71,0-1.41,0-2.4a18.15,18.15,0,0,0-2,.86c-3,1.74-6,3.4-8.81,5.33-5.13,3.5-10.11,7.24-15.24,10.75a52.93,52.93,0,0,1-7.86,4.6c-5.82,2.67-11.74,5.14-17.68,7.54a27,27,0,0,1-12.43,1.42c-.83-.06-1.82-.08-2.16-1s.38-1.62,1-2.15a10.35,10.35,0,0,1,2.38-1.6,123.61,123.61,0,0,0,21.48-12.46,57.69,57.69,0,0,0,12-11.57c3.06-4.1,5.39-8.54,5.9-13.74a6,6,0,0,0,.06-1.93c-.41-1.63.57-2.56,1.55-3.51a4.85,4.85,0,0,1,4-1.68,4,4,0,0,1,2.12,1.24c1.34,1.4,2.53,2.95,3.81,4.41,2.56,2.92,5.08,5.88,7.74,8.7a35.79,35.79,0,0,0,3.86,3.15Z"/><path d="M50.09,236.61a2.27,2.27,0,0,1,.65,0c6.2,2.13,12.25,4.58,17.69,8.32a24.06,24.06,0,0,1,6.69,6.42c.81,1.23,1.45,2.58,2.26,4,2.34-.47,4.74-.92,7.13-1.44,19.1-4.13,38.21-8.22,57.29-12.43,8.4-1.86,16.72-4.09,25.13-5.9,6.64-1.42,13.37-2.46,20-3.65a11.27,11.27,0,0,1,1.33-.09,3.62,3.62,0,0,1-.42.75A132.39,132.39,0,0,1,172.76,246l-.79.57a21.21,21.21,0,0,1-9.78,4C147.46,252.63,132.75,255,118,257c-12.76,1.77-25.55,3.26-38.33,4.87-.57.08-1.13.21-1.8.34a19.2,19.2,0,0,0-.15,2.19,5.55,5.55,0,0,1-1.62,4.24,48.39,48.39,0,0,1-5.21,4.92,110.2,110.2,0,0,1-9.7,6.79c-14,8.46-28.05,16.67-42.55,24.17-2,1-4.11,1.91-6.17,2.84a3,3,0,0,1-2.68.1,9.58,9.58,0,0,1,.78-2.32c2.79-4.23,5.85-8.27,10-11.31,9.47-7,19-14,27.83-21.81,2.43-2.12,4.65-4.49,7-6.74a6.29,6.29,0,0,0,1.77-5.69,2.47,2.47,0,0,0-1.18-2.1c-3.58-1.84-4.88-5.07-5.25-8.75s-.54-7.49-.77-11.23A3.81,3.81,0,0,1,50.09,236.61Z"/><path d="M155.4,114.65c-3.73.71-7.14,1.42-10.57,2a140.06,140.06,0,0,1-26.08,2.24c-10.22-.24-20.43-.77-30.65-1.21-3.36-.14-6.72-.47-10.08-.56a8.44,8.44,0,0,1-6.45-3.43c-1.15-1.36-1-2.19.39-3.25a14.6,14.6,0,0,1,7.23-2.58c1.8-.2,3.62-.23,5.43-.27,8.48-.19,16.94-.71,25.36-1.72a57.56,57.56,0,0,0,15.8-3.77,61.91,61.91,0,0,1,14.12-4.15,36.18,36.18,0,0,1,5.21-.33,4.21,4.21,0,0,1,3.95,2.37c.47.85,1,1.68,1.41,2.54A95.06,95.06,0,0,1,155.4,114.65Z"/><path d="M77.71,272.79c2.67-.42,5.15-.79,7.63-1.2,11.36-1.9,22.72-3.83,34.09-5.71,6.38-1.06,12.77-2.07,19.17-3.08,1.36-.21,2.81-.43,3.71.94s.53,2.88-.2,4.24a10,10,0,0,1-5.82,4.58c-3.66,1.29-7.32,2.59-11,3.81A181.9,181.9,0,0,1,96,283.77c-3.32.51-6.69.7-10,1-2.78.22-4.69-1.17-6-3.5A19.84,19.84,0,0,1,77.71,272.79Z"/><path d="M113.78,377.36a22,22,0,0,1,6.72.52,83,83,0,0,1,21.74,7.55c6.83,3.32,13.41,7.06,19.15,12.09a20.56,20.56,0,0,1,2.37,2.29,2.94,2.94,0,0,1,0,3.92,3.5,3.5,0,0,1-.24.3c-4.18,4.14-8.75,7.7-14.34,9.74a13.54,13.54,0,0,1-3,.66,5,5,0,0,1-5.76-3.56,17.58,17.58,0,0,1-.81-5.14,10,10,0,0,0-1.92-6.18,41.73,41.73,0,0,0-4.42-5.14,43.22,43.22,0,0,0-13.68-9.05A9.75,9.75,0,0,1,113.78,377.36Z"/><path d="M34.6,491.91a4.08,4.08,0,0,1,5.18-1,33.57,33.57,0,0,1,3.4,2.22c1.65,1.12,3.26,2.32,5,3.37a132.61,132.61,0,0,1,19.06,14,33.19,33.19,0,0,1,4.31,4.71c1.28,1.69,1,2.87-.85,4A18.33,18.33,0,0,1,62,521.84a33.13,33.13,0,0,1-6.37-.22,3.23,3.23,0,0,1-3-3,13.08,13.08,0,0,0-1.95-4.6q-3.84-6-8-11.7c-2.23-3.09-4.69-6-7-9C35.29,492.86,35,492.4,34.6,491.91Z"/><path d="M123.17,328.73c-.13-.9-.33-2.44-.61-4s-.32-1.61,1.09-2.48a8,8,0,0,1,6.72-.75,18.12,18.12,0,0,1,7.91,5.1,4.87,4.87,0,0,1,1.22,3.14c-.06,5.89-2.11,11-7.17,14.28a40.07,40.07,0,0,1-14.91,5.81c-1.21.22-2.58.54-3.44-.6s-.19-2.55.53-3.59a29,29,0,0,1,3.59-4.3C121.52,338.08,123.09,334.06,123.17,328.73Z"/><path d="M54.82,338.06c2.93-3.73,5.75-7.14,9.87-9.17a5.11,5.11,0,0,1,6.27.87,37.79,37.79,0,0,1,3.57,3.81A63,63,0,0,1,82.88,348a15.05,15.05,0,0,1,.89,2.76,3.36,3.36,0,0,1-1.65,3.64,3.17,3.17,0,0,1-3.74-.68,7,7,0,0,1-.79-.85c-4.74-6.11-11-10.13-18.06-13C58.1,339.28,56.64,338.75,54.82,338.06Z"/><path d="M116.57,596.3V581.45c18.27-1.07,36.56-2.79,55.13-2,.22,4.4.11,8.5.08,12.78-9.28.54-18.44,1-27.59,1.65S126,595.45,116.57,596.3Z" fill="none"/><path d="M171.7,611.68l-54.29,4.74c-.33-4.55-.65-9-1-13.56.94-.15,1.61-.31,2.29-.37,14.33-1.12,28.66-2.25,43-2.66a60.55,60.55,0,0,1,9.95.37Z" fill="none"/></svg>