<svg xmlns="http://www.w3.org/2000/svg" viewBox="0 0 355.56 137.86"><path d="M49.41,2.28,49,4.69H40.59L35.73,32.34h-3L37.58,4.69H29.24l.43-2.41Z"/><path d="M54,31.5a8.36,8.36,0,0,1-3.46-3.36,10.12,10.12,0,0,1-1.23-5.09,15,15,0,0,1,1.81-7.29,13.75,13.75,0,0,1,5-5.29,13.61,13.61,0,0,1,7.18-2A10.85,10.85,0,0,1,68.5,9.7,8.51,8.51,0,0,1,72,13.05a10.09,10.09,0,0,1,1.25,5.1,14.79,14.79,0,0,1-1.85,7.31,14.17,14.17,0,0,1-5,5.26,13.45,13.45,0,0,1-7.16,2A10.85,10.85,0,0,1,54,31.5Zm11-3a11.23,11.23,0,0,0,3.79-4.34,13,13,0,0,0,1.35-5.85,6.91,6.91,0,0,0-2-5.38,7.44,7.44,0,0,0-5.18-1.85,9.39,9.39,0,0,0-5.44,1.64,11.08,11.08,0,0,0-3.72,4.34,13.07,13.07,0,0,0-1.33,5.85,6.91,6.91,0,0,0,2,5.35,7.15,7.15,0,0,0,5.07,1.87A9.57,9.57,0,0,0,65,28.51Z"/><path d="M86.47,9.76a10.27,10.27,0,0,1,5.29-1.33l-.56,3.14h-.86A9,9,0,0,0,85,13.16a8.56,8.56,0,0,0-3.1,5.24L79.46,32.34h-3L80.58,8.86h3l-.82,4.68A10.25,10.25,0,0,1,86.47,9.76Z"/><path d="M95.29,14.21A13.45,13.45,0,0,1,100,10a12.77,12.77,0,0,1,6-1.49,9.18,9.18,0,0,1,5.5,1.55,7,7,0,0,1,2.8,4l.9-5.16h3l-4.13,23.48h-3l.91-5.21a11.51,11.51,0,0,1-4.2,4,11.93,11.93,0,0,1-6.08,1.57,10,10,0,0,1-4.9-1.16,8,8,0,0,1-3.27-3.29,10.36,10.36,0,0,1-1.16-5,15.23,15.23,0,0,1,.26-2.67A15.57,15.57,0,0,1,95.29,14.21Zm18.14,4.24a7.08,7.08,0,0,0-2-5.33,7.17,7.17,0,0,0-5.24-2,10.11,10.11,0,0,0-4.67,1.11,10.27,10.27,0,0,0-3.68,3.25,12.46,12.46,0,0,0-2,5.05,14,14,0,0,0-.21,2.2,6.81,6.81,0,0,0,7.22,7.31,9.83,9.83,0,0,0,4.62-1.16,10.61,10.61,0,0,0,3.75-3.32,12.44,12.44,0,0,0,2-5A12.73,12.73,0,0,0,113.43,18.45Z"/><path d="M138.67,15.14l-.43,2.53H121.52l.43-2.53Z"/><path d="M145.38,31a5.32,5.32,0,0,1-2.23-4.53,5.13,5.13,0,0,1,0-.78h2.92A3.82,3.82,0,0,0,147.32,29a5.82,5.82,0,0,0,4,1.24,7.46,7.46,0,0,0,4.34-1.14,3.53,3.53,0,0,0,1.64-3,2.74,2.74,0,0,0-.69-1.89,5.45,5.45,0,0,0-1.7-1.27,28.64,28.64,0,0,0-2.82-1.14,28.52,28.52,0,0,1-3.59-1.53,6.94,6.94,0,0,1-2.32-2,5.13,5.13,0,0,1-1-3.21,5.6,5.6,0,0,1,1.12-3.44,7.27,7.27,0,0,1,3.07-2.32,11.59,11.59,0,0,1,4.46-.82,9,9,0,0,1,5.69,1.72,5.49,5.49,0,0,1,2.22,4.56,6.59,6.59,0,0,1-.05.91h-2.83a3.5,3.5,0,0,0,0-.56,3.73,3.73,0,0,0-1.48-3.06,6,6,0,0,0-3.81-1.16,6.44,6.44,0,0,0-3.85,1.1A3.43,3.43,0,0,0,148.31,15a3,3,0,0,0,.73,2.09,5.43,5.43,0,0,0,1.8,1.35c.72.35,1.68.75,2.88,1.21a30.57,30.57,0,0,1,3.46,1.5A6.52,6.52,0,0,1,159.4,23a4.91,4.91,0,0,1,.9,3,5.66,5.66,0,0,1-2.53,4.86,11.08,11.08,0,0,1-6.58,1.81A9.48,9.48,0,0,1,145.38,31Z"/><path d="M186.36,10.36a7.32,7.32,0,0,1,2.15,5.72,13.65,13.65,0,0,1-.21,2.5l-2.46,13.76h-3l2.36-13.42a11.76,11.76,0,0,0,.18-2.11,5.66,5.66,0,0,0-1.55-4.3,6.12,6.12,0,0,0-4.35-1.46,8.42,8.42,0,0,0-5.8,2.15,10.6,10.6,0,0,0-3.14,6.32v0L168.3,32.34h-3L170.92.52h3l-2.19,12.34a9.79,9.79,0,0,1,3.87-3.29,11.55,11.55,0,0,1,5.07-1.14A8.17,8.17,0,0,1,186.36,10.36Z"/><path d="M199.65,8.86l-4.13,23.48h-3l4.13-23.48Zm-2-4.93a1.69,1.69,0,0,1-.52-1.31,2.53,2.53,0,0,1,.77-1.87A2.58,2.58,0,0,1,199.73,0,1.83,1.83,0,0,1,201,.47a1.66,1.66,0,0,1,.5,1.25,2.62,2.62,0,0,1-.78,1.91,2.42,2.42,0,0,1-1.8.8A1.83,1.83,0,0,1,197.63,3.93Z"/><path d="M223.4,10.38a7.29,7.29,0,0,1,2.18,5.7,13.6,13.6,0,0,1-.22,2.5l-2.45,13.76h-3l2.37-13.42a12.79,12.79,0,0,0,.17-2.11,5.66,5.66,0,0,0-1.55-4.3,6.09,6.09,0,0,0-4.34-1.46,8.44,8.44,0,0,0-5.81,2.15,10.65,10.65,0,0,0-3.14,6.32v-.13l-2.27,13h-3l4.12-23.48h3l-.73,4a10.18,10.18,0,0,1,3.83-3.31,11,11,0,0,1,5-1.16A8.3,8.3,0,0,1,223.4,10.38Z"/><path d="M247.2,15.14l-.43,2.53H230.05l.43-2.53Z"/><path d="M259.5,20.6l9.16,11.74h-4.08l-7.83-10.5-1.85,10.5h-3L257.52.52h3l-3.35,18.83L268.53,8.86h4.17Z"/><path d="M275.8,14.21A13.45,13.45,0,0,1,280.55,10a12.77,12.77,0,0,1,6-1.49,9.23,9.23,0,0,1,5.51,1.55,7,7,0,0,1,2.79,4l.9-5.16h3l-4.12,23.48h-3l.9-5.21a11.48,11.48,0,0,1-4.19,4,12,12,0,0,1-6.09,1.57,10,10,0,0,1-4.9-1.16,8.16,8.16,0,0,1-3.27-3.29,10.36,10.36,0,0,1-1.16-5,15.23,15.23,0,0,1,.26-2.67A15.57,15.57,0,0,1,275.8,14.21ZM294,18.45a7.09,7.09,0,0,0-2-5.33,7.15,7.15,0,0,0-5.24-2,10,10,0,0,0-8.34,4.36,12.18,12.18,0,0,0-2,5.05,13,13,0,0,0-.22,2.2,6.81,6.81,0,0,0,7.22,7.31A9.9,9.9,0,0,0,288,28.9a10.67,10.67,0,0,0,3.74-3.32,12.16,12.16,0,0,0,2-5A12.84,12.84,0,0,0,294,18.45Z"/><path d="M322.6,10.38a7.29,7.29,0,0,1,2.18,5.7,13.6,13.6,0,0,1-.22,2.5l-2.45,13.76h-3l2.37-13.42a12.79,12.79,0,0,0,.17-2.11,5.66,5.66,0,0,0-1.55-4.3,6.09,6.09,0,0,0-4.34-1.46A8.44,8.44,0,0,0,310,13.2a10.65,10.65,0,0,0-3.14,6.32v-.13l-2.27,13h-3l4.12-23.48h3l-.73,4a10.18,10.18,0,0,1,3.83-3.31,11,11,0,0,1,5-1.16A8.3,8.3,0,0,1,322.6,10.38Z"/><path d="M120.49,44.29v2.54h15.86v2H120.49v3.61H138v1.07a40.65,40.65,0,0,1-1.59,5.94l-2.11-.6a35.33,35.33,0,0,0,1.33-4.35H120V59l11.39-1.38.31,2L120,61v1.89c0,1.37.77,2.06,2.41,2.06h9.33a3.6,3.6,0,0,0,2.19-.51c.52-.43.9-1.68,1.12-3.75l2.15.69c-.26,2.58-.82,4.22-1.68,4.82a6.07,6.07,0,0,1-3.35.73H121.73c-2.75,0-4.08-1.2-4.08-3.53v-2.1l-7.27.86-.3-1.94,7.57-.9V54.48h-9.72V64.2c0,7.53-1.76,13.93-5.2,19.26L101,81.92c3-4.61,4.56-10.45,4.69-17.59V52.42h12.56V44.29Zm9.11,25.5v9.42a1.48,1.48,0,0,0,1.68,1.67h3.52a3.09,3.09,0,0,0,1.68-.38c.52-.35,1-2,1.29-5.12l2.07.69c-.31,2.92-.74,4.81-1.29,5.76-.61.77-1.77,1.16-3.49,1.16h-4.25c-2.33,0-3.49-1.16-3.49-3.4V71.94h-9.59a14.81,14.81,0,0,1-2.36,7.7,11.75,11.75,0,0,1-7,3.87l-1.29-1.85a11.3,11.3,0,0,0,6.62-3.7c1.29-1.89,1.94-4.6,1.94-8.17Z"/><path d="M164,58.57a82.25,82.25,0,0,1-5.28,18.57l-2-1.29a74.9,74.9,0,0,0,5-17.76Zm8.05,23.56c-2.76,0-4.09-1.29-4.09-3.87V53.32h2.37V77.74c0,1.38.77,2.07,2.4,2.07h8.52a2.63,2.63,0,0,0,2.49-1.25c.6-1.07,1-4.21,1.25-9.46l2.19.73c-.26,5.77-.86,9.29-1.76,10.67a4.24,4.24,0,0,1-3.7,1.63Zm10.27-26.79-2,1.34A80,80,0,0,0,171,45.84l1.93-1.2A87.29,87.29,0,0,1,182.36,55.34Zm13.85,18.79-2.15,1a113.38,113.38,0,0,0-7.78-17.67l2.27-.78A120.93,120.93,0,0,1,196.21,74.13Z"/><path d="M222.44,45c2.41,2.41,4.73,4.94,7.05,7.7l-1.55,1.59c-2.41-2.93-4.51-5.29-6.36-7.18a53.81,53.81,0,0,1-8.09,9.41l-1.33-1.76A53.45,53.45,0,0,0,220.33,45Zm6.62,36.51-1.85.81c-.34-1.07-.73-2.06-1.07-3a76.8,76.8,0,0,1-10.71,3.44l-.69-1.85a1.56,1.56,0,0,0,1-1.5V56.68h5a34.9,34.9,0,0,0-1.2-4.18l2.1-.38c.43,1.29.82,2.84,1.25,4.56h4.3v14.7h-9.42V80c2.89-.86,5.42-1.72,7.62-2.62-.61-1.38-1.17-2.66-1.77-3.83l1.94-.64A64.31,64.31,0,0,1,229.06,81.49Zm-4-22.79h-7.27v4.43h7.27Zm-7.27,10.62h7.27V65h-7.27ZM250.22,56.2H248V51.13H232V56.2h-2.2V49h9a34.9,34.9,0,0,0-1.93-4.34l2.23-.39A45.5,45.5,0,0,1,241,49h9.25ZM234.39,83.55h-2.23V55.94h15.22v9.85h-13v4.86h14.24V83.59h-2.24v-2h-12Zm10.75-19.78V58H234.39v5.76ZM234.39,79.51h12v-6.8h-12Z"/><path d="M4.28,125.73a7.23,7.23,0,0,1-3.16-2.53A6.44,6.44,0,0,1,0,119.46a6.3,6.3,0,0,1,0-.86H3a5.5,5.5,0,0,0,.49,2.64,4.72,4.72,0,0,0,2,2.11,7.32,7.32,0,0,0,3.72.84,7.57,7.57,0,0,0,5.07-1.6,5.31,5.31,0,0,0,1.89-4.3,4.22,4.22,0,0,0-.88-2.73,7.18,7.18,0,0,0-2.17-1.8,34.56,34.56,0,0,0-3.53-1.61,33,33,0,0,1-4.17-1.92A7.52,7.52,0,0,1,2.9,107.8a6.3,6.3,0,0,1-.84-4,7.28,7.28,0,0,1,1.4-4.11A8.79,8.79,0,0,1,7,97a12.38,12.38,0,0,1,5.14-1,11.39,11.39,0,0,1,4.88,1,6.88,6.88,0,0,1,3.05,2.65,6.16,6.16,0,0,1,.88,3.7H17.84a4,4,0,0,0-.53-2.28,4.65,4.65,0,0,0-2-1.83A7.16,7.16,0,0,0,12,98.43a8,8,0,0,0-5,1.48,4.8,4.8,0,0,0-1.94,4,3.85,3.85,0,0,0,.86,2.54A7.41,7.41,0,0,0,8,108.19a34.37,34.37,0,0,0,3.44,1.59,34,34,0,0,1,4.11,1.94,8.57,8.57,0,0,1,2.66,2.4,6.3,6.3,0,0,1,1.1,3.79c0,.37,0,.66,0,.86a7.81,7.81,0,0,1-1.47,4,8.74,8.74,0,0,1-3.54,2.84,12.7,12.7,0,0,1-5.27,1A11.5,11.5,0,0,1,4.28,125.73Z"/><path d="M34.21,104.08a12,12,0,0,1,6-1.57A9.26,9.26,0,0,1,47.06,105a9.16,9.16,0,0,1,2.56,6.86,14.15,14.15,0,0,1-.26,2.66,15.75,15.75,0,0,1-2.58,6.37A13.57,13.57,0,0,1,42,125.17a12.56,12.56,0,0,1-6,1.51,9,9,0,0,1-5.46-1.57,7.62,7.62,0,0,1-2.88-3.93l-2.84,16.25h-3l6.11-34.57h3L30,108A11.67,11.67,0,0,1,34.21,104.08Zm12.32,8.28a7,7,0,0,0-2-5.31,7.34,7.34,0,0,0-5.27-1.91,9.61,9.61,0,0,0-4.6,1.16,10.81,10.81,0,0,0-3.74,3.31,12.1,12.1,0,0,0-2.07,5,12.64,12.64,0,0,0-.21,2.15,6.87,6.87,0,0,0,7.26,7.31,9.89,9.89,0,0,0,4.67-1.14,10.5,10.5,0,0,0,3.7-3.31,12.45,12.45,0,0,0,2-5.06A14.15,14.15,0,0,0,46.53,112.36Z"/><path d="M59.94,102.86l-4.13,23.48h-3l4.13-23.48Zm-2-4.93a1.72,1.72,0,0,1-.52-1.31,2.5,2.5,0,0,1,.78-1.87A2.55,2.55,0,0,1,60,94a1.84,1.84,0,0,1,1.31.47,1.65,1.65,0,0,1,.49,1.25,2.61,2.61,0,0,1-.77,1.91,2.46,2.46,0,0,1-1.81.8A1.84,1.84,0,0,1,57.92,97.93Z"/><path d="M72.67,103.76A10.27,10.27,0,0,1,78,102.43l-.56,3.14h-.86a8.94,8.94,0,0,0-5.33,1.59,8.52,8.52,0,0,0-3.1,5.24l-2.45,13.94h-3l4.13-23.48h3L69,107.54A10.25,10.25,0,0,1,72.67,103.76Z"/><path d="M85.35,102.86l-4.12,23.48h-3l4.12-23.48Zm-2-4.93a1.72,1.72,0,0,1-.51-1.31,2.49,2.49,0,0,1,.77-1.87A2.57,2.57,0,0,1,85.44,94a1.84,1.84,0,0,1,1.31.47,1.66,1.66,0,0,1,.5,1.25,2.62,2.62,0,0,1-.78,1.91,2.44,2.44,0,0,1-1.8.8A1.87,1.87,0,0,1,83.33,97.93Z"/><path d="M93.05,120a7.89,7.89,0,0,0-.13,1.33,2.21,2.21,0,0,0,.75,1.92,4.36,4.36,0,0,0,2.48.54H98.9l-.48,2.58H95.2a6.46,6.46,0,0,1-4-1,4,4,0,0,1-1.33-3.39A11.84,11.84,0,0,1,90,120l2.58-14.58H89.35l.48-2.53h3.26l1-5.89h3l-1,5.89h6.5l-.48,2.53H95.63Z"/><path d="M121.21,125.5a8.42,8.42,0,0,1-3.46-3.36,10.22,10.22,0,0,1-1.22-5.09,15.08,15.08,0,0,1,1.8-7.29,13.82,13.82,0,0,1,5-5.29,13.64,13.64,0,0,1,7.19-2,10.91,10.91,0,0,1,5.16,1.19,8.51,8.51,0,0,1,3.48,3.35,10.09,10.09,0,0,1,1.25,5.1,14.79,14.79,0,0,1-1.85,7.31,14.19,14.19,0,0,1-5.06,5.26,13.4,13.4,0,0,1-7.16,2A10.88,10.88,0,0,1,121.21,125.5Zm11-3a11.23,11.23,0,0,0,3.79-4.34,13,13,0,0,0,1.35-5.85,6.91,6.91,0,0,0-2-5.38,7.44,7.44,0,0,0-5.18-1.85,9.39,9.39,0,0,0-5.44,1.64,11,11,0,0,0-3.72,4.34,13.08,13.08,0,0,0-1.34,5.85,6.94,6.94,0,0,0,2,5.35,7.18,7.18,0,0,0,5.08,1.87A9.6,9.6,0,0,0,132.2,122.51Z"/><path d="M153.72,97.48a6.06,6.06,0,0,0-1.85,3.74l-.3,1.64h5.51l-.48,2.53h-5.46l-3.7,21h-3l3.7-21h-3.27l.48-2.53h3.22l.3-1.64a8.86,8.86,0,0,1,3-5.63q2.28-1.8,6.67-1.8L158,96.37A6.81,6.81,0,0,0,153.72,97.48Z"/><path d="M175.31,120a7.89,7.89,0,0,0-.13,1.33,2.21,2.21,0,0,0,.75,1.92,4.34,4.34,0,0,0,2.47.54h2.76l-.48,2.58h-3.22a6.46,6.46,0,0,1-4-1,4,4,0,0,1-1.33-3.39,10.83,10.83,0,0,1,.17-1.94l2.58-14.58h-3.27l.47-2.53h3.27l1-5.89h3l-1,5.89h6.49l-.47,2.53h-6.49Z"/><path d="M206.7,104.36a7.32,7.32,0,0,1,2.15,5.72,12.78,12.78,0,0,1-.22,2.5l-2.45,13.76h-3l2.37-13.42a12.79,12.79,0,0,0,.17-2.11,5.62,5.62,0,0,0-1.55-4.3,6.09,6.09,0,0,0-4.34-1.46,8.42,8.42,0,0,0-5.8,2.15,10.54,10.54,0,0,0-3.14,6.32v0l-2.28,12.86h-3l5.63-31.82h3l-2.19,12.34a9.79,9.79,0,0,1,3.87-3.29,11.51,11.51,0,0,1,5.07-1.14A8.18,8.18,0,0,1,206.7,104.36Z"/><path d="M232.28,103.65a7.85,7.85,0,0,1,3.21,3.12,9.16,9.16,0,0,1,1.09,4.52,11.51,11.51,0,0,1-.17,2.06c-.17.86-.34,1.63-.52,2.32H216.42a9.53,9.53,0,0,0-.13,1.55,6.53,6.53,0,0,0,2,5.12,7.31,7.31,0,0,0,5.09,1.8,9.45,9.45,0,0,0,5.2-1.42,8.21,8.21,0,0,0,3.27-3.82h3.23a12.7,12.7,0,0,1-4.67,5.61,12.94,12.94,0,0,1-7.46,2.17,9.77,9.77,0,0,1-7-2.52,9,9,0,0,1-2.64-6.85,15.27,15.27,0,0,1,.25-2.71,15.52,15.52,0,0,1,2.61-6.41A13.16,13.16,0,0,1,221,104a13.53,13.53,0,0,1,6.24-1.47A10.49,10.49,0,0,1,232.28,103.65Zm1.25,7.77a5.8,5.8,0,0,0-1.94-4.69,7.38,7.38,0,0,0-4.94-1.64,9.79,9.79,0,0,0-7.74,3.79,10.73,10.73,0,0,0-2.06,4.56h16.46A11.38,11.38,0,0,0,233.53,111.42Z"/><path d="M275.2,96.28l-.43,2.41h-8.39l-4.86,27.65h-3l4.86-27.65H255l.43-2.41Z"/><path d="M281.77,102.86l-4.12,23.48h-3l4.12-23.48Zm-2-4.93a1.72,1.72,0,0,1-.51-1.31,2.53,2.53,0,0,1,.77-1.87,2.57,2.57,0,0,1,1.85-.75,1.83,1.83,0,0,1,1.31.47,1.66,1.66,0,0,1,.5,1.25,2.62,2.62,0,0,1-.78,1.91,2.44,2.44,0,0,1-1.8.8A1.87,1.87,0,0,1,279.75,97.93Z"/><path d="M304,104.06a7,7,0,0,1,2.81,3.91l.91-5.11h3l-4.22,24.08a13.51,13.51,0,0,1-2.38,5.72,12.53,12.53,0,0,1-4.58,3.85,13.34,13.34,0,0,1-5.94,1.35,10.83,10.83,0,0,1-7.11-2.15,7.41,7.41,0,0,1-2.69-5.85h3a5.74,5.74,0,0,0,2.23,3.92,8.11,8.11,0,0,0,5.08,1.46,9.16,9.16,0,0,0,6.1-2.22,9.9,9.9,0,0,0,3.31-6.08l1-5.81a11.4,11.4,0,0,1-4.19,4,11.88,11.88,0,0,1-6,1.57,9.21,9.21,0,0,1-6.82-2.56,9.33,9.33,0,0,1-2.56-6.9,15.23,15.23,0,0,1,.26-2.67,15.57,15.57,0,0,1,2.58-6.34A13.45,13.45,0,0,1,292.5,104a12.77,12.77,0,0,1,6-1.49A9.25,9.25,0,0,1,304,104.06Zm1.87,8.39a6.87,6.87,0,0,0-7.27-7.31,10.14,10.14,0,0,0-4.67,1.11,10.24,10.24,0,0,0-3.67,3.25,12.24,12.24,0,0,0-2,5,13,13,0,0,0-.22,2.2,6.82,6.82,0,0,0,7.23,7.31,9.89,9.89,0,0,0,4.62-1.16,10.58,10.58,0,0,0,3.74-3.32,12.16,12.16,0,0,0,2-5A11.87,11.87,0,0,0,305.9,112.45Z"/><path d="M332.94,103.65a7.79,7.79,0,0,1,3.21,3.12,9.16,9.16,0,0,1,1.09,4.52,10.65,10.65,0,0,1-.17,2.06c-.17.86-.34,1.63-.51,2.32H317.08a9.53,9.53,0,0,0-.13,1.55,6.53,6.53,0,0,0,2,5.12,7.31,7.31,0,0,0,5.09,1.8,9.51,9.51,0,0,0,5.21-1.42,8.24,8.24,0,0,0,3.26-3.82h3.23a12.7,12.7,0,0,1-4.67,5.61,12.94,12.94,0,0,1-7.46,2.17,9.78,9.78,0,0,1-7-2.52,9,9,0,0,1-2.64-6.85,14.42,14.42,0,0,1,.26-2.71,15.51,15.51,0,0,1,2.6-6.41,13.16,13.16,0,0,1,4.83-4.21,13.53,13.53,0,0,1,6.24-1.47A10.49,10.49,0,0,1,332.94,103.65Zm1.25,7.77a5.79,5.79,0,0,0-1.93-4.69,7.41,7.41,0,0,0-4.95-1.64,9.79,9.79,0,0,0-7.74,3.79,10.73,10.73,0,0,0-2.06,4.56H334A12.24,12.24,0,0,0,334.19,111.42Z"/><path d="M350.27,103.76a10.27,10.27,0,0,1,5.29-1.33l-.56,3.14h-.86a9,9,0,0,0-5.33,1.59,8.56,8.56,0,0,0-3.1,5.24l-2.45,13.94h-3l4.13-23.48h3l-.81,4.68A10.15,10.15,0,0,1,350.27,103.76Z"/></svg>
